<?xml version="1.0" encoding="utf-8" standalone="no"?>
<!DOCTYPE svg PUBLIC "-//W3C//DTD SVG 1.1//EN"
  "http://www.w3.org/Graphics/SVG/1.1/DTD/svg11.dtd">
<svg xmlns:xlink="http://www.w3.org/1999/xlink" width="366.86125pt" height="351.034375pt" viewBox="0 0 366.86125 351.034375" xmlns="http://www.w3.org/2000/svg" version="1.1">
 <metadata>
  <rdf:RDF xmlns:dc="http://purl.org/dc/elements/1.1/" xmlns:cc="http://creativecommons.org/ns#" xmlns:rdf="http://www.w3.org/1999/02/22-rdf-syntax-ns#">
   <cc:Work>
    <dc:type rdf:resource="http://purl.org/dc/dcmitype/StillImage"/>
    <dc:date>2026-06-20T22:39:14.550725</dc:date>
    <dc:format>image/svg+xml</dc:format>
    <dc:creator>
     <cc:Agent>
      <dc:title>Matplotlib v3.10.7, https://matplotlib.org/</dc:title>
     </cc:Agent>
    </dc:creator>
   </cc:Work>
  </rdf:RDF>
 </metadata>
 <defs>
  <style type="text/css">*{stroke-linejoin: round; stroke-linecap: butt}</style>
 </defs>
 <g id="figure_1">
  <g id="patch_1">
   <path d="M -0 351.034375 
L 366.86125 351.034375 
L 366.86125 0 
L -0 0 
z
" style="fill: #ffffff"/>
  </g>
  <g id="axes_1">
   <g id="patch_2">
    <path d="M 43.78125 313.478125 
L 359.66125 313.478125 
L 359.66125 22.318125 
L 43.78125 22.318125 
z
" style="fill: #ffffff"/>
   </g>
   <g id="matplotlib.axis_1">
    <g id="xtick_1">
     <g id="line2d_1">
      <path d="M 58.139432 313.478125 
L 58.139432 22.318125 
" clip-path="url(#p5e7c5b3a8c)" style="fill: none; stroke-dasharray: 2.96,1.28; stroke-dashoffset: 0; stroke: #b0b0b0; stroke-opacity: 0.35; stroke-width: 0.8"/>
     </g>
     <g id="line2d_2">
      <defs>
       <path id="m1acc7c72c6" d="M 0 0 
L 0 3.5 
" style="stroke: #000000; stroke-width: 0.8"/>
      </defs>
      <g>
       <use xlink:href="#m1acc7c72c6" x="58.139432" y="313.478125" style="stroke: #000000; stroke-width: 0.8"/>
      </g>
     </g>
     <g id="text_1">
      <!-- 0.0 -->
      <g transform="translate(50.187869 328.076563) scale(0.1 -0.1)">
       <defs>
        <path id="DejaVuSans-30" d="M 2034 4250 
Q 1547 4250 1301 3770 
Q 1056 3291 1056 2328 
Q 1056 1369 1301 889 
Q 1547 409 2034 409 
Q 2525 409 2770 889 
Q 3016 1369 3016 2328 
Q 3016 3291 2770 3770 
Q 2525 4250 2034 4250 
z
M 2034 4750 
Q 2819 4750 3233 4129 
Q 3647 3509 3647 2328 
Q 3647 1150 3233 529 
Q 2819 -91 2034 -91 
Q 1250 -91 836 529 
Q 422 1150 422 2328 
Q 422 3509 836 4129 
Q 1250 4750 2034 4750 
z
" transform="scale(0.015625)"/>
        <path id="DejaVuSans-2e" d="M 684 794 
L 1344 794 
L 1344 0 
L 684 0 
L 684 794 
z
" transform="scale(0.015625)"/>
       </defs>
       <use xlink:href="#DejaVuSans-30"/>
       <use xlink:href="#DejaVuSans-2e" transform="translate(63.623047 0)"/>
       <use xlink:href="#DejaVuSans-30" transform="translate(95.410156 0)"/>
      </g>
     </g>
    </g>
    <g id="xtick_2">
     <g id="line2d_3">
      <path d="M 115.572159 313.478125 
L 115.572159 22.318125 
" clip-path="url(#p5e7c5b3a8c)" style="fill: none; stroke-dasharray: 2.96,1.28; stroke-dashoffset: 0; stroke: #b0b0b0; stroke-opacity: 0.35; stroke-width: 0.8"/>
     </g>
     <g id="line2d_4">
      <g>
       <use xlink:href="#m1acc7c72c6" x="115.572159" y="313.478125" style="stroke: #000000; stroke-width: 0.8"/>
      </g>
     </g>
     <g id="text_2">
      <!-- 0.2 -->
      <g transform="translate(107.620597 328.076563) scale(0.1 -0.1)">
       <defs>
        <path id="DejaVuSans-32" d="M 1228 531 
L 3431 531 
L 3431 0 
L 469 0 
L 469 531 
Q 828 903 1448 1529 
Q 2069 2156 2228 2338 
Q 2531 2678 2651 2914 
Q 2772 3150 2772 3378 
Q 2772 3750 2511 3984 
Q 2250 4219 1831 4219 
Q 1534 4219 1204 4116 
Q 875 4013 500 3803 
L 500 4441 
Q 881 4594 1212 4672 
Q 1544 4750 1819 4750 
Q 2544 4750 2975 4387 
Q 3406 4025 3406 3419 
Q 3406 3131 3298 2873 
Q 3191 2616 2906 2266 
Q 2828 2175 2409 1742 
Q 1991 1309 1228 531 
z
" transform="scale(0.015625)"/>
       </defs>
       <use xlink:href="#DejaVuSans-30"/>
       <use xlink:href="#DejaVuSans-2e" transform="translate(63.623047 0)"/>
       <use xlink:href="#DejaVuSans-32" transform="translate(95.410156 0)"/>
      </g>
     </g>
    </g>
    <g id="xtick_3">
     <g id="line2d_5">
      <path d="M 173.004886 313.478125 
L 173.004886 22.318125 
" clip-path="url(#p5e7c5b3a8c)" style="fill: none; stroke-dasharray: 2.96,1.28; stroke-dashoffset: 0; stroke: #b0b0b0; stroke-opacity: 0.35; stroke-width: 0.8"/>
     </g>
     <g id="line2d_6">
      <g>
       <use xlink:href="#m1acc7c72c6" x="173.004886" y="313.478125" style="stroke: #000000; stroke-width: 0.8"/>
      </g>
     </g>
     <g id="text_3">
      <!-- 0.4 -->
      <g transform="translate(165.053324 328.076563) scale(0.1 -0.1)">
       <defs>
        <path id="DejaVuSans-34" d="M 2419 4116 
L 825 1625 
L 2419 1625 
L 2419 4116 
z
M 2253 4666 
L 3047 4666 
L 3047 1625 
L 3713 1625 
L 3713 1100 
L 3047 1100 
L 3047 0 
L 2419 0 
L 2419 1100 
L 313 1100 
L 313 1709 
L 2253 4666 
z
" transform="scale(0.015625)"/>
       </defs>
       <use xlink:href="#DejaVuSans-30"/>
       <use xlink:href="#DejaVuSans-2e" transform="translate(63.623047 0)"/>
       <use xlink:href="#DejaVuSans-34" transform="translate(95.410156 0)"/>
      </g>
     </g>
    </g>
    <g id="xtick_4">
     <g id="line2d_7">
      <path d="M 230.437614 313.478125 
L 230.437614 22.318125 
" clip-path="url(#p5e7c5b3a8c)" style="fill: none; stroke-dasharray: 2.96,1.28; stroke-dashoffset: 0; stroke: #b0b0b0; stroke-opacity: 0.35; stroke-width: 0.8"/>
     </g>
     <g id="line2d_8">
      <g>
       <use xlink:href="#m1acc7c72c6" x="230.437614" y="313.478125" style="stroke: #000000; stroke-width: 0.8"/>
      </g>
     </g>
     <g id="text_4">
      <!-- 0.6 -->
      <g transform="translate(222.486051 328.076563) scale(0.1 -0.1)">
       <defs>
        <path id="DejaVuSans-36" d="M 2113 2584 
Q 1688 2584 1439 2293 
Q 1191 2003 1191 1497 
Q 1191 994 1439 701 
Q 1688 409 2113 409 
Q 2538 409 2786 701 
Q 3034 994 3034 1497 
Q 3034 2003 2786 2293 
Q 2538 2584 2113 2584 
z
M 3366 4563 
L 3366 3988 
Q 3128 4100 2886 4159 
Q 2644 4219 2406 4219 
Q 1781 4219 1451 3797 
Q 1122 3375 1075 2522 
Q 1259 2794 1537 2939 
Q 1816 3084 2150 3084 
Q 2853 3084 3261 2657 
Q 3669 2231 3669 1497 
Q 3669 778 3244 343 
Q 2819 -91 2113 -91 
Q 1303 -91 875 529 
Q 447 1150 447 2328 
Q 447 3434 972 4092 
Q 1497 4750 2381 4750 
Q 2619 4750 2861 4703 
Q 3103 4656 3366 4563 
z
" transform="scale(0.015625)"/>
       </defs>
       <use xlink:href="#DejaVuSans-30"/>
       <use xlink:href="#DejaVuSans-2e" transform="translate(63.623047 0)"/>
       <use xlink:href="#DejaVuSans-36" transform="translate(95.410156 0)"/>
      </g>
     </g>
    </g>
    <g id="xtick_5">
     <g id="line2d_9">
      <path d="M 287.870341 313.478125 
L 287.870341 22.318125 
" clip-path="url(#p5e7c5b3a8c)" style="fill: none; stroke-dasharray: 2.96,1.28; stroke-dashoffset: 0; stroke: #b0b0b0; stroke-opacity: 0.35; stroke-width: 0.8"/>
     </g>
     <g id="line2d_10">
      <g>
       <use xlink:href="#m1acc7c72c6" x="287.870341" y="313.478125" style="stroke: #000000; stroke-width: 0.8"/>
      </g>
     </g>
     <g id="text_5">
      <!-- 0.8 -->
      <g transform="translate(279.918778 328.076563) scale(0.1 -0.1)">
       <defs>
        <path id="DejaVuSans-38" d="M 2034 2216 
Q 1584 2216 1326 1975 
Q 1069 1734 1069 1313 
Q 1069 891 1326 650 
Q 1584 409 2034 409 
Q 2484 409 2743 651 
Q 3003 894 3003 1313 
Q 3003 1734 2745 1975 
Q 2488 2216 2034 2216 
z
M 1403 2484 
Q 997 2584 770 2862 
Q 544 3141 544 3541 
Q 544 4100 942 4425 
Q 1341 4750 2034 4750 
Q 2731 4750 3128 4425 
Q 3525 4100 3525 3541 
Q 3525 3141 3298 2862 
Q 3072 2584 2669 2484 
Q 3125 2378 3379 2068 
Q 3634 1759 3634 1313 
Q 3634 634 3220 271 
Q 2806 -91 2034 -91 
Q 1263 -91 848 271 
Q 434 634 434 1313 
Q 434 1759 690 2068 
Q 947 2378 1403 2484 
z
M 1172 3481 
Q 1172 3119 1398 2916 
Q 1625 2713 2034 2713 
Q 2441 2713 2670 2916 
Q 2900 3119 2900 3481 
Q 2900 3844 2670 4047 
Q 2441 4250 2034 4250 
Q 1625 4250 1398 4047 
Q 1172 3844 1172 3481 
z
" transform="scale(0.015625)"/>
       </defs>
       <use xlink:href="#DejaVuSans-30"/>
       <use xlink:href="#DejaVuSans-2e" transform="translate(63.623047 0)"/>
       <use xlink:href="#DejaVuSans-38" transform="translate(95.410156 0)"/>
      </g>
     </g>
    </g>
    <g id="xtick_6">
     <g id="line2d_11">
      <path d="M 345.303068 313.478125 
L 345.303068 22.318125 
" clip-path="url(#p5e7c5b3a8c)" style="fill: none; stroke-dasharray: 2.96,1.28; stroke-dashoffset: 0; stroke: #b0b0b0; stroke-opacity: 0.35; stroke-width: 0.8"/>
     </g>
     <g id="line2d_12">
      <g>
       <use xlink:href="#m1acc7c72c6" x="345.303068" y="313.478125" style="stroke: #000000; stroke-width: 0.8"/>
      </g>
     </g>
     <g id="text_6">
      <!-- 1.0 -->
      <g transform="translate(337.351506 328.076563) scale(0.1 -0.1)">
       <defs>
        <path id="DejaVuSans-31" d="M 794 531 
L 1825 531 
L 1825 4091 
L 703 3866 
L 703 4441 
L 1819 4666 
L 2450 4666 
L 2450 531 
L 3481 531 
L 3481 0 
L 794 0 
L 794 531 
z
" transform="scale(0.015625)"/>
       </defs>
       <use xlink:href="#DejaVuSans-31"/>
       <use xlink:href="#DejaVuSans-2e" transform="translate(63.623047 0)"/>
       <use xlink:href="#DejaVuSans-30" transform="translate(95.410156 0)"/>
      </g>
     </g>
    </g>
    <g id="text_7">
     <!-- False Positive Rate -->
     <g transform="translate(155.254844 341.754687) scale(0.1 -0.1)">
      <defs>
       <path id="DejaVuSans-46" d="M 628 4666 
L 3309 4666 
L 3309 4134 
L 1259 4134 
L 1259 2759 
L 3109 2759 
L 3109 2228 
L 1259 2228 
L 1259 0 
L 628 0 
L 628 4666 
z
" transform="scale(0.015625)"/>
       <path id="DejaVuSans-61" d="M 2194 1759 
Q 1497 1759 1228 1600 
Q 959 1441 959 1056 
Q 959 750 1161 570 
Q 1363 391 1709 391 
Q 2188 391 2477 730 
Q 2766 1069 2766 1631 
L 2766 1759 
L 2194 1759 
z
M 3341 1997 
L 3341 0 
L 2766 0 
L 2766 531 
Q 2569 213 2275 61 
Q 1981 -91 1556 -91 
Q 1019 -91 701 211 
Q 384 513 384 1019 
Q 384 1609 779 1909 
Q 1175 2209 1959 2209 
L 2766 2209 
L 2766 2266 
Q 2766 2663 2505 2880 
Q 2244 3097 1772 3097 
Q 1472 3097 1187 3025 
Q 903 2953 641 2809 
L 641 3341 
Q 956 3463 1253 3523 
Q 1550 3584 1831 3584 
Q 2591 3584 2966 3190 
Q 3341 2797 3341 1997 
z
" transform="scale(0.015625)"/>
       <path id="DejaVuSans-6c" d="M 603 4863 
L 1178 4863 
L 1178 0 
L 603 0 
L 603 4863 
z
" transform="scale(0.015625)"/>
       <path id="DejaVuSans-73" d="M 2834 3397 
L 2834 2853 
Q 2591 2978 2328 3040 
Q 2066 3103 1784 3103 
Q 1356 3103 1142 2972 
Q 928 2841 928 2578 
Q 928 2378 1081 2264 
Q 1234 2150 1697 2047 
L 1894 2003 
Q 2506 1872 2764 1633 
Q 3022 1394 3022 966 
Q 3022 478 2636 193 
Q 2250 -91 1575 -91 
Q 1294 -91 989 -36 
Q 684 19 347 128 
L 347 722 
Q 666 556 975 473 
Q 1284 391 1588 391 
Q 1994 391 2212 530 
Q 2431 669 2431 922 
Q 2431 1156 2273 1281 
Q 2116 1406 1581 1522 
L 1381 1569 
Q 847 1681 609 1914 
Q 372 2147 372 2553 
Q 372 3047 722 3315 
Q 1072 3584 1716 3584 
Q 2034 3584 2315 3537 
Q 2597 3491 2834 3397 
z
" transform="scale(0.015625)"/>
       <path id="DejaVuSans-65" d="M 3597 1894 
L 3597 1613 
L 953 1613 
Q 991 1019 1311 708 
Q 1631 397 2203 397 
Q 2534 397 2845 478 
Q 3156 559 3463 722 
L 3463 178 
Q 3153 47 2828 -22 
Q 2503 -91 2169 -91 
Q 1331 -91 842 396 
Q 353 884 353 1716 
Q 353 2575 817 3079 
Q 1281 3584 2069 3584 
Q 2775 3584 3186 3129 
Q 3597 2675 3597 1894 
z
M 3022 2063 
Q 3016 2534 2758 2815 
Q 2500 3097 2075 3097 
Q 1594 3097 1305 2825 
Q 1016 2553 972 2059 
L 3022 2063 
z
" transform="scale(0.015625)"/>
       <path id="DejaVuSans-20" transform="scale(0.015625)"/>
       <path id="DejaVuSans-50" d="M 1259 4147 
L 1259 2394 
L 2053 2394 
Q 2494 2394 2734 2622 
Q 2975 2850 2975 3272 
Q 2975 3691 2734 3919 
Q 2494 4147 2053 4147 
L 1259 4147 
z
M 628 4666 
L 2053 4666 
Q 2838 4666 3239 4311 
Q 3641 3956 3641 3272 
Q 3641 2581 3239 2228 
Q 2838 1875 2053 1875 
L 1259 1875 
L 1259 0 
L 628 0 
L 628 4666 
z
" transform="scale(0.015625)"/>
       <path id="DejaVuSans-6f" d="M 1959 3097 
Q 1497 3097 1228 2736 
Q 959 2375 959 1747 
Q 959 1119 1226 758 
Q 1494 397 1959 397 
Q 2419 397 2687 759 
Q 2956 1122 2956 1747 
Q 2956 2369 2687 2733 
Q 2419 3097 1959 3097 
z
M 1959 3584 
Q 2709 3584 3137 3096 
Q 3566 2609 3566 1747 
Q 3566 888 3137 398 
Q 2709 -91 1959 -91 
Q 1206 -91 779 398 
Q 353 888 353 1747 
Q 353 2609 779 3096 
Q 1206 3584 1959 3584 
z
" transform="scale(0.015625)"/>
       <path id="DejaVuSans-69" d="M 603 3500 
L 1178 3500 
L 1178 0 
L 603 0 
L 603 3500 
z
M 603 4863 
L 1178 4863 
L 1178 4134 
L 603 4134 
L 603 4863 
z
" transform="scale(0.015625)"/>
       <path id="DejaVuSans-74" d="M 1172 4494 
L 1172 3500 
L 2356 3500 
L 2356 3053 
L 1172 3053 
L 1172 1153 
Q 1172 725 1289 603 
Q 1406 481 1766 481 
L 2356 481 
L 2356 0 
L 1766 0 
Q 1100 0 847 248 
Q 594 497 594 1153 
L 594 3053 
L 172 3053 
L 172 3500 
L 594 3500 
L 594 4494 
L 1172 4494 
z
" transform="scale(0.015625)"/>
       <path id="DejaVuSans-76" d="M 191 3500 
L 800 3500 
L 1894 563 
L 2988 3500 
L 3597 3500 
L 2284 0 
L 1503 0 
L 191 3500 
z
" transform="scale(0.015625)"/>
       <path id="DejaVuSans-52" d="M 2841 2188 
Q 3044 2119 3236 1894 
Q 3428 1669 3622 1275 
L 4263 0 
L 3584 0 
L 2988 1197 
Q 2756 1666 2539 1819 
Q 2322 1972 1947 1972 
L 1259 1972 
L 1259 0 
L 628 0 
L 628 4666 
L 2053 4666 
Q 2853 4666 3247 4331 
Q 3641 3997 3641 3322 
Q 3641 2881 3436 2590 
Q 3231 2300 2841 2188 
z
M 1259 4147 
L 1259 2491 
L 2053 2491 
Q 2509 2491 2742 2702 
Q 2975 2913 2975 3322 
Q 2975 3731 2742 3939 
Q 2509 4147 2053 4147 
L 1259 4147 
z
" transform="scale(0.015625)"/>
      </defs>
      <use xlink:href="#DejaVuSans-46"/>
      <use xlink:href="#DejaVuSans-61" transform="translate(48.394531 0)"/>
      <use xlink:href="#DejaVuSans-6c" transform="translate(109.673828 0)"/>
      <use xlink:href="#DejaVuSans-73" transform="translate(137.457031 0)"/>
      <use xlink:href="#DejaVuSans-65" transform="translate(189.556641 0)"/>
      <use xlink:href="#DejaVuSans-20" transform="translate(251.080078 0)"/>
      <use xlink:href="#DejaVuSans-50" transform="translate(282.867188 0)"/>
      <use xlink:href="#DejaVuSans-6f" transform="translate(339.544922 0)"/>
      <use xlink:href="#DejaVuSans-73" transform="translate(400.726562 0)"/>
      <use xlink:href="#DejaVuSans-69" transform="translate(452.826172 0)"/>
      <use xlink:href="#DejaVuSans-74" transform="translate(480.609375 0)"/>
      <use xlink:href="#DejaVuSans-69" transform="translate(519.818359 0)"/>
      <use xlink:href="#DejaVuSans-76" transform="translate(547.601562 0)"/>
      <use xlink:href="#DejaVuSans-65" transform="translate(606.78125 0)"/>
      <use xlink:href="#DejaVuSans-20" transform="translate(668.304688 0)"/>
      <use xlink:href="#DejaVuSans-52" transform="translate(700.091797 0)"/>
      <use xlink:href="#DejaVuSans-61" transform="translate(767.324219 0)"/>
      <use xlink:href="#DejaVuSans-74" transform="translate(828.603516 0)"/>
      <use xlink:href="#DejaVuSans-65" transform="translate(867.8125 0)"/>
     </g>
    </g>
   </g>
   <g id="matplotlib.axis_2">
    <g id="ytick_1">
     <g id="line2d_13">
      <path d="M 43.78125 300.24358 
L 359.66125 300.24358 
" clip-path="url(#p5e7c5b3a8c)" style="fill: none; stroke-dasharray: 2.96,1.28; stroke-dashoffset: 0; stroke: #b0b0b0; stroke-opacity: 0.35; stroke-width: 0.8"/>
     </g>
     <g id="line2d_14">
      <defs>
       <path id="m4138c3b10b" d="M 0 0 
L -3.5 0 
" style="stroke: #000000; stroke-width: 0.8"/>
      </defs>
      <g>
       <use xlink:href="#m4138c3b10b" x="43.78125" y="300.24358" style="stroke: #000000; stroke-width: 0.8"/>
      </g>
     </g>
     <g id="text_8">
      <!-- 0.0 -->
      <g transform="translate(20.878125 304.042798) scale(0.1 -0.1)">
       <use xlink:href="#DejaVuSans-30"/>
       <use xlink:href="#DejaVuSans-2e" transform="translate(63.623047 0)"/>
       <use xlink:href="#DejaVuSans-30" transform="translate(95.410156 0)"/>
      </g>
     </g>
    </g>
    <g id="ytick_2">
     <g id="line2d_15">
      <path d="M 43.78125 247.305398 
L 359.66125 247.305398 
" clip-path="url(#p5e7c5b3a8c)" style="fill: none; stroke-dasharray: 2.96,1.28; stroke-dashoffset: 0; stroke: #b0b0b0; stroke-opacity: 0.35; stroke-width: 0.8"/>
     </g>
     <g id="line2d_16">
      <g>
       <use xlink:href="#m4138c3b10b" x="43.78125" y="247.305398" style="stroke: #000000; stroke-width: 0.8"/>
      </g>
     </g>
     <g id="text_9">
      <!-- 0.2 -->
      <g transform="translate(20.878125 251.104616) scale(0.1 -0.1)">
       <use xlink:href="#DejaVuSans-30"/>
       <use xlink:href="#DejaVuSans-2e" transform="translate(63.623047 0)"/>
       <use xlink:href="#DejaVuSans-32" transform="translate(95.410156 0)"/>
      </g>
     </g>
    </g>
    <g id="ytick_3">
     <g id="line2d_17">
      <path d="M 43.78125 194.367216 
L 359.66125 194.367216 
" clip-path="url(#p5e7c5b3a8c)" style="fill: none; stroke-dasharray: 2.96,1.28; stroke-dashoffset: 0; stroke: #b0b0b0; stroke-opacity: 0.35; stroke-width: 0.8"/>
     </g>
     <g id="line2d_18">
      <g>
       <use xlink:href="#m4138c3b10b" x="43.78125" y="194.367216" style="stroke: #000000; stroke-width: 0.8"/>
      </g>
     </g>
     <g id="text_10">
      <!-- 0.4 -->
      <g transform="translate(20.878125 198.166435) scale(0.1 -0.1)">
       <use xlink:href="#DejaVuSans-30"/>
       <use xlink:href="#DejaVuSans-2e" transform="translate(63.623047 0)"/>
       <use xlink:href="#DejaVuSans-34" transform="translate(95.410156 0)"/>
      </g>
     </g>
    </g>
    <g id="ytick_4">
     <g id="line2d_19">
      <path d="M 43.78125 141.429034 
L 359.66125 141.429034 
" clip-path="url(#p5e7c5b3a8c)" style="fill: none; stroke-dasharray: 2.96,1.28; stroke-dashoffset: 0; stroke: #b0b0b0; stroke-opacity: 0.35; stroke-width: 0.8"/>
     </g>
     <g id="line2d_20">
      <g>
       <use xlink:href="#m4138c3b10b" x="43.78125" y="141.429034" style="stroke: #000000; stroke-width: 0.8"/>
      </g>
     </g>
     <g id="text_11">
      <!-- 0.6 -->
      <g transform="translate(20.878125 145.228253) scale(0.1 -0.1)">
       <use xlink:href="#DejaVuSans-30"/>
       <use xlink:href="#DejaVuSans-2e" transform="translate(63.623047 0)"/>
       <use xlink:href="#DejaVuSans-36" transform="translate(95.410156 0)"/>
      </g>
     </g>
    </g>
    <g id="ytick_5">
     <g id="line2d_21">
      <path d="M 43.78125 88.490852 
L 359.66125 88.490852 
" clip-path="url(#p5e7c5b3a8c)" style="fill: none; stroke-dasharray: 2.96,1.28; stroke-dashoffset: 0; stroke: #b0b0b0; stroke-opacity: 0.35; stroke-width: 0.8"/>
     </g>
     <g id="line2d_22">
      <g>
       <use xlink:href="#m4138c3b10b" x="43.78125" y="88.490852" style="stroke: #000000; stroke-width: 0.8"/>
      </g>
     </g>
     <g id="text_12">
      <!-- 0.8 -->
      <g transform="translate(20.878125 92.290071) scale(0.1 -0.1)">
       <use xlink:href="#DejaVuSans-30"/>
       <use xlink:href="#DejaVuSans-2e" transform="translate(63.623047 0)"/>
       <use xlink:href="#DejaVuSans-38" transform="translate(95.410156 0)"/>
      </g>
     </g>
    </g>
    <g id="ytick_6">
     <g id="line2d_23">
      <path d="M 43.78125 35.55267 
L 359.66125 35.55267 
" clip-path="url(#p5e7c5b3a8c)" style="fill: none; stroke-dasharray: 2.96,1.28; stroke-dashoffset: 0; stroke: #b0b0b0; stroke-opacity: 0.35; stroke-width: 0.8"/>
     </g>
     <g id="line2d_24">
      <g>
       <use xlink:href="#m4138c3b10b" x="43.78125" y="35.55267" style="stroke: #000000; stroke-width: 0.8"/>
      </g>
     </g>
     <g id="text_13">
      <!-- 1.0 -->
      <g transform="translate(20.878125 39.351889) scale(0.1 -0.1)">
       <use xlink:href="#DejaVuSans-31"/>
       <use xlink:href="#DejaVuSans-2e" transform="translate(63.623047 0)"/>
       <use xlink:href="#DejaVuSans-30" transform="translate(95.410156 0)"/>
      </g>
     </g>
    </g>
    <g id="text_14">
     <!-- True Positive Rate -->
     <g transform="translate(14.798438 212.427813) rotate(-90) scale(0.1 -0.1)">
      <defs>
       <path id="DejaVuSans-54" d="M -19 4666 
L 3928 4666 
L 3928 4134 
L 2272 4134 
L 2272 0 
L 1638 0 
L 1638 4134 
L -19 4134 
L -19 4666 
z
" transform="scale(0.015625)"/>
       <path id="DejaVuSans-72" d="M 2631 2963 
Q 2534 3019 2420 3045 
Q 2306 3072 2169 3072 
Q 1681 3072 1420 2755 
Q 1159 2438 1159 1844 
L 1159 0 
L 581 0 
L 581 3500 
L 1159 3500 
L 1159 2956 
Q 1341 3275 1631 3429 
Q 1922 3584 2338 3584 
Q 2397 3584 2469 3576 
Q 2541 3569 2628 3553 
L 2631 2963 
z
" transform="scale(0.015625)"/>
       <path id="DejaVuSans-75" d="M 544 1381 
L 544 3500 
L 1119 3500 
L 1119 1403 
Q 1119 906 1312 657 
Q 1506 409 1894 409 
Q 2359 409 2629 706 
Q 2900 1003 2900 1516 
L 2900 3500 
L 3475 3500 
L 3475 0 
L 2900 0 
L 2900 538 
Q 2691 219 2414 64 
Q 2138 -91 1772 -91 
Q 1169 -91 856 284 
Q 544 659 544 1381 
z
M 1991 3584 
L 1991 3584 
z
" transform="scale(0.015625)"/>
      </defs>
      <use xlink:href="#DejaVuSans-54"/>
      <use xlink:href="#DejaVuSans-72" transform="translate(46.333984 0)"/>
      <use xlink:href="#DejaVuSans-75" transform="translate(87.447266 0)"/>
      <use xlink:href="#DejaVuSans-65" transform="translate(150.826172 0)"/>
      <use xlink:href="#DejaVuSans-20" transform="translate(212.349609 0)"/>
      <use xlink:href="#DejaVuSans-50" transform="translate(244.136719 0)"/>
      <use xlink:href="#DejaVuSans-6f" transform="translate(300.814453 0)"/>
      <use xlink:href="#DejaVuSans-73" transform="translate(361.996094 0)"/>
      <use xlink:href="#DejaVuSans-69" transform="translate(414.095703 0)"/>
      <use xlink:href="#DejaVuSans-74" transform="translate(441.878906 0)"/>
      <use xlink:href="#DejaVuSans-69" transform="translate(481.087891 0)"/>
      <use xlink:href="#DejaVuSans-76" transform="translate(508.871094 0)"/>
      <use xlink:href="#DejaVuSans-65" transform="translate(568.050781 0)"/>
      <use xlink:href="#DejaVuSans-20" transform="translate(629.574219 0)"/>
      <use xlink:href="#DejaVuSans-52" transform="translate(661.361328 0)"/>
      <use xlink:href="#DejaVuSans-61" transform="translate(728.59375 0)"/>
      <use xlink:href="#DejaVuSans-74" transform="translate(789.873047 0)"/>
      <use xlink:href="#DejaVuSans-65" transform="translate(829.082031 0)"/>
     </g>
    </g>
   </g>
   <g id="line2d_25">
    <path d="M 58.139432 300.24358 
L 58.250434 256.510642 
L 58.251381 256.40116 
L 58.362383 239.76428 
L 58.36333 239.654798 
L 58.36333 239.653338 
L 58.474332 228.643831 
L 58.4767 228.532889 
L 58.587702 217.298579 
L 58.599386 216.161427 
L 58.710388 207.267111 
L 58.712283 207.189744 
L 58.712283 207.159089 
L 58.823284 200.131807 
L 58.825969 200.022325 
L 58.93697 195.050383 
L 58.93997 194.939442 
L 59.050972 190.681323 
L 59.053814 190.5806 
L 59.053814 190.571841 
L 59.164816 186.842155 
L 59.1675 186.742892 
L 59.1675 186.731213 
L 59.214712 185.275833 
L 59.325713 181.937363 
L 59.379398 180.411914 
L 59.4904 177.055927 
L 59.544243 175.526099 
L 59.655087 172.621177 
L 59.659824 172.511695 
L 59.770825 169.780485 
L 59.774773 169.681221 
L 59.885775 166.986505 
L 59.891143 166.875563 
L 60.002145 164.291789 
L 60.00704 164.180847 
L 60.118041 162.005805 
L 60.12562 161.903622 
L 60.12562 161.897783 
L 60.236622 159.73296 
L 60.242464 159.622018 
L 60.358203 157.521424 
L 60.469205 155.558047 
L 60.624102 153.096893 
L 60.735103 151.346641 
L 60.744419 151.235699 
L 60.855263 149.549677 
L 60.863947 149.447494 
L 60.974949 147.797965 
L 60.982528 147.691403 
L 61.09353 146.164494 
L 61.102688 146.055012 
L 61.213374 144.558759 
L 61.223164 144.452196 
L 61.334007 142.967621 
L 61.342376 142.856679 
L 61.45322 141.369184 
L 61.464904 141.258242 
L 61.575432 139.791184 
L 61.58538 139.680242 
L 61.696066 138.315367 
L 61.706329 138.208804 
L 61.706329 138.205885 
L 61.817173 137.052675 
L 61.828541 136.943193 
L 61.939227 135.671742 
L 61.948069 135.560801 
L 62.059071 134.268913 
L 62.068387 134.157972 
L 62.179389 132.946371 
L 62.188863 132.835429 
L 62.299706 131.667622 
L 62.310286 131.565438 
L 62.420971 130.429746 
L 62.437077 130.320264 
L 62.547447 129.30865 
L 62.562132 129.205007 
L 62.672975 128.205072 
L 62.673133 128.205072 
L 63.531462 121.298949 
L 63.545515 121.190927 
L 63.656517 120.38222 
L 63.670096 120.275658 
L 63.78094 119.396882 
L 63.796887 119.287401 
L 63.907889 118.474314 
L 63.92731 118.363373 
L 64.038312 117.598459 
L 64.056786 117.487517 
L 64.167472 116.703626 
L 64.181525 116.592684 
L 64.292527 115.779598 
L 64.310685 115.668656 
L 64.421687 114.894984 
L 64.43495 114.784042 
L 64.545952 113.935922 
L 64.558741 113.82644 
L 64.669427 112.97832 
L 64.669743 112.97832 
L 64.691691 112.867378 
L 64.802535 112.057211 
L 64.817693 111.946269 
L 64.928379 111.098149 
L 64.948274 110.988667 
L 65.059275 110.134708 
L 65.074907 110.028145 
L 65.185909 109.258852 
L 65.20233 109.14791 
L 65.313174 108.404893 
L 65.328174 108.295411 
L 65.439176 107.585968 
L 65.458755 107.475026 
L 65.569441 106.743686 
L 65.594547 106.632745 
L 65.704917 106.002128 
L 65.73097 105.898485 
L 65.841498 105.20364 
L 65.861077 105.094158 
L 65.972079 104.440186 
L 65.994342 104.329244 
L 66.10487 103.751179 
L 66.126029 103.640237 
L 66.236715 103.057793 
L 66.256136 102.946852 
L 66.366664 102.389223 
L 66.385927 102.281201 
L 66.496929 101.732332 
L 66.524719 101.62139 
L 66.635563 101.081279 
L 66.654195 100.971797 
L 66.765196 100.481318 
L 66.78446 100.371836 
L 66.895462 99.890115 
L 66.925146 99.779173 
L 67.036148 99.326648 
L 67.06378 99.215706 
L 67.174782 98.722307 
L 67.206045 98.612825 
L 67.316889 98.139863 
L 67.336626 98.028921 
L 67.446838 97.577856 
L 67.472891 97.468374 
L 67.583735 96.969136 
L 67.614209 96.858194 
L 67.725211 96.414427 
L 67.758685 96.303486 
L 67.869687 95.941465 
L 67.901266 95.830524 
L 68.011637 95.392596 
L 68.035005 95.281654 
L 68.145691 94.875841 
L 68.17285 94.766359 
L 68.283378 94.348868 
L 68.317799 94.237926 
L 68.428801 93.824814 
L 68.453433 93.713872 
L 68.564277 93.283243 
L 68.59854 93.172301 
L 68.709068 92.794224 
L 68.741753 92.684742 
L 68.741753 92.683282 
L 68.919387 92.071643 
L 68.959178 91.962161 
L 69.070179 91.509635 
L 69.098601 91.400153 
L 69.207866 91.086305 
L 69.24434 90.975363 
L 69.354868 90.643998 
L 69.392289 90.533056 
L 69.502975 90.175415 
L 69.551766 90.064473 
L 69.66103 89.750625 
L 69.704768 89.639683 
L 69.815612 89.314157 
L 69.855876 89.203215 
L 69.966877 88.909803 
L 70.006825 88.798862 
L 70.117827 88.50253 
L 70.167407 88.391589 
L 70.278408 88.130292 
L 70.318198 88.02081 
L 70.427463 87.730318 
L 70.482254 87.619376 
L 70.593255 87.384354 
L 70.636519 87.273413 
L 70.747363 87.013576 
L 70.786206 86.902634 
L 70.897049 86.667613 
L 70.947892 86.55959 
L 71.056841 86.314351 
L 71.107369 86.203409 
L 71.21837 85.964008 
L 71.285319 85.853067 
L 71.395215 85.606367 
L 71.440847 85.496885 
L 71.440847 85.495426 
L 71.585007 85.193255 
L 71.638061 85.083773 
L 71.748273 84.905683 
L 71.806379 84.794741 
L 71.916907 84.569938 
L 71.979277 84.460456 
L 72.08791 84.272147 
L 72.153437 84.161205 
L 72.264123 83.95246 
L 72.335335 83.841518 
L 72.446021 83.676565 
L 72.507601 83.567083 
L 72.617339 83.380234 
L 72.689182 83.269292 
L 72.797974 83.072225 
L 72.87108 82.961283 
L 72.980661 82.786112 
L 73.039398 82.67517 
L 73.14661 82.508757 
L 73.207875 82.397816 
L 73.318403 82.184691 
L 73.395141 82.073749 
L 73.503774 81.895658 
L 73.573564 81.786176 
L 73.684408 81.629982 
L 73.757199 81.51904 
L 73.868201 81.335111 
L 73.952676 81.225629 
L 74.063361 81.063595 
L 74.150679 80.952654 
L 74.26168 80.783322 
L 74.349155 80.67238 
L 74.459368 80.532243 
L 74.534369 80.421301 
L 74.644897 80.24759 
L 74.733319 80.136648 
L 74.8429 79.978994 
L 74.936691 79.869512 
L 75.047377 79.713318 
L 75.134694 79.602376 
L 75.24538 79.463699 
L 75.324644 79.354217 
L 75.434856 79.170287 
L 75.542542 79.059346 
L 75.651491 78.862278 
L 75.739282 78.751336 
L 75.849021 78.586383 
L 75.965864 78.476901 
L 76.076235 78.332385 
L 76.153446 78.221444 
L 76.263816 78.076927 
L 76.346397 77.965986 
L 76.456609 77.82001 
L 76.538715 77.713447 
L 76.649401 77.570391 
L 76.744929 77.459449 
L 76.849773 77.328071 
L 76.852457 77.328071 
L 76.952406 77.217129 
L 77.063092 77.098888 
L 77.172041 76.987947 
L 77.281148 76.853649 
L 77.36957 76.742707 
L 77.480256 76.627386 
L 77.568994 76.516444 
L 77.676522 76.393824 
L 77.776471 76.282883 
L 77.886052 76.161723 
L 77.985211 76.050781 
L 78.095581 75.929621 
L 78.178793 75.818679 
L 78.289479 75.700439 
L 78.372533 75.590957 
L 78.483535 75.444981 
L 78.556168 75.334039 
L 78.667011 75.211419 
L 78.744381 75.100477 
L 78.853488 74.977858 
L 78.933542 74.866916 
L 79.043754 74.766193 
L 79.157756 74.655251 
L 79.262599 74.522413 
L 79.262915 74.522413 
L 79.381654 74.411471 
L 79.492182 74.266955 
L 79.619605 74.156013 
L 79.729817 74.029014 
L 79.848714 73.918072 
L 79.956242 73.793993 
L 80.063612 73.683051 
L 80.169403 73.563351 
L 80.261931 73.452409 
L 80.370722 73.344387 
L 80.49404 73.233445 
L 80.603146 73.093308 
L 80.714938 72.982366 
L 80.825939 72.849528 
L 80.930783 72.738586 
L 81.039258 72.630564 
L 81.168418 72.519623 
L 81.278473 72.410141 
L 81.377 72.299199 
L 81.487213 72.188257 
L 81.620952 72.077315 
L 81.731006 71.970753 
L 81.837429 71.859811 
L 81.948272 71.737191 
L 82.0378 71.62625 
L 82.148644 71.497791 
L 82.258856 71.386849 
L 82.369858 71.245252 
L 82.456386 71.134311 
L 82.567229 71.01607 
L 82.673652 70.905128 
L 82.782285 70.782509 
L 82.882076 70.671567 
L 82.992604 70.527051 
L 83.103922 70.417569 
L 83.214608 70.300788 
L 83.31503 70.189846 
L 83.4254 70.070146 
L 83.54256 69.959204 
L 83.648351 69.829286 
L 83.742142 69.718344 
L 83.852039 69.604483 
L 83.961461 69.493541 
L 84.072463 69.360703 
L 84.191675 69.249761 
L 84.302046 69.150497 
L 84.4001 69.039556 
L 84.510786 68.918396 
L 84.597471 68.808914 
L 84.708315 68.665857 
L 84.785685 68.554915 
L 84.895423 68.454192 
L 84.994898 68.34617 
L 85.102742 68.22647 
L 85.199375 68.115528 
L 85.30864 67.98123 
L 85.421852 67.870288 
L 85.529696 67.719933 
L 85.639277 67.610451 
L 85.749489 67.499509 
L 85.853701 67.388568 
L 85.962808 67.283465 
L 86.071125 67.173983 
L 86.178811 67.06742 
L 86.263128 66.956479 
L 86.372551 66.849916 
L 86.510869 66.738975 
L 86.621871 66.633872 
L 86.726872 66.52293 
L 86.835821 66.435345 
L 86.952981 66.324403 
L 87.06193 66.168209 
L 87.197722 66.057267 
L 87.308408 65.946325 
L 87.440568 65.835383 
L 87.550622 65.714223 
L 87.684677 65.603282 
L 87.793468 65.4938 
L 87.93447 65.382858 
L 88.045314 65.283594 
L 88.188211 65.172652 
L 88.29716 65.076308 
L 88.399635 64.965367 
L 88.509689 64.870482 
L 88.642797 64.75954 
L 88.744482 64.663196 
L 88.750798 64.663196 
L 88.889906 64.552255 
L 88.998697 64.471968 
L 89.102435 64.361026 
L 89.212805 64.289498 
L 89.324597 64.178556 
L 89.432125 64.073453 
L 89.551021 63.962512 
L 89.659339 63.858869 
L 89.814552 63.747927 
L 89.924764 63.661801 
L 90.040187 63.55086 
L 90.151188 63.450136 
L 90.287769 63.339194 
L 90.398297 63.237011 
L 90.531089 63.126069 
L 90.642091 63.013668 
L 90.778198 62.902726 
L 90.886831 62.802003 
L 91.02657 62.691061 
L 91.134414 62.57866 
L 91.268627 62.469178 
L 91.376628 62.358236 
L 91.490156 62.247294 
L 91.600842 62.158249 
L 91.74516 62.047307 
L 91.853636 61.955342 
L 91.989111 61.844401 
L 92.097271 61.739298 
L 92.246168 61.628356 
L 92.355749 61.494058 
L 92.493119 61.383117 
L 92.603016 61.30429 
L 92.726965 61.193348 
L 92.833388 61.12182 
L 92.97739 61.010878 
L 93.087602 60.920373 
L 93.256078 60.809431 
L 93.365185 60.723305 
L 93.526714 60.612363 
L 93.633926 60.548134 
L 93.843772 60.437192 
L 93.95351 60.355446 
L 94.192566 60.244504 
L 94.30041 60.190493 
L 94.528414 60.081011 
L 94.639415 60.035758 
L 94.940525 59.924817 
L 95.035895 59.892702 
L 95.040632 59.892702 
L 95.359584 59.78176 
L 95.468218 59.729209 
L 95.469481 59.729209 
L 95.763012 59.618267 
L 95.868171 59.583233 
L 96.151597 59.472291 
L 96.262283 59.41974 
L 96.519181 59.308798 
L 96.627814 59.254787 
L 96.877924 59.143845 
L 96.983241 59.101512 
L 97.272351 58.990571 
L 97.373879 58.945318 
L 97.57504 58.834376 
L 97.67941 58.800802 
L 97.922255 58.68986 
L 98.031678 58.62855 
L 98.230787 58.517608 
L 98.337525 58.449 
L 98.581318 58.338058 
L 98.691846 58.285507 
L 98.962956 58.174565 
L 99.069536 58.122014 
L 99.311593 58.011072 
L 99.417226 57.973118 
L 99.642703 57.862176 
L 99.753705 57.799407 
L 99.970182 57.688465 
L 100.080552 57.632994 
L 100.315345 57.522052 
L 100.419399 57.472421 
L 100.64835 57.361479 
L 100.759352 57.301629 
L 100.98325 57.190687 
L 101.093304 57.141055 
L 101.306308 57.030113 
L 101.413362 56.980482 
L 101.681156 56.86954 
L 101.788368 56.815529 
L 102.074319 56.704587 
L 102.182005 56.644737 
L 102.40764 56.533795 
L 102.518484 56.495841 
L 102.728487 56.3849 
L 102.830963 56.332348 
L 103.079177 56.221407 
L 103.181337 56.176154 
L 103.190179 56.176154 
L 103.443604 56.065212 
L 103.54829 56.030178 
L 103.93198 55.919236 
L 104.040297 55.887122 
L 104.547779 55.77618 
L 104.623569 55.752824 
L 104.635885 55.752824 
L 105.134525 55.641882 
L 105.244105 55.622905 
L 106.349385 55.511963 
L 106.462913 55.504665 
L 107.477876 55.393723 
L 107.582246 55.383505 
L 107.582562 55.383505 
L 108.434575 55.272563 
L 108.507208 55.265264 
L 108.528524 55.265264 
L 109.556908 55.155782 
L 109.661752 55.138265 
L 110.650978 55.027323 
L 110.727084 55.014185 
L 110.75819 55.014185 
L 111.774732 54.903244 
L 111.87247 54.888646 
L 111.884944 54.888646 
L 113.293071 54.777704 
L 113.398389 54.766026 
L 113.402968 54.766026 
L 114.459616 54.655085 
L 114.566828 54.636108 
L 115.849427 54.525166 
L 115.961534 54.512028 
L 117.004602 54.401086 
L 117.089235 54.396707 
L 117.109762 54.396707 
L 118.339939 54.285765 
L 118.441309 54.269708 
L 118.449519 54.269708 
L 119.875804 54.158766 
L 119.971332 54.150008 
L 119.986648 54.150008 
L 121.213983 54.039066 
L 121.323248 54.024468 
L 121.324353 54.024468 
L 123.129907 53.913527 
L 123.232856 53.898929 
L 123.240909 53.898929 
L 124.49777 53.787987 
L 124.594561 53.779229 
L 124.595982 53.779229 
L 125.86816 53.668287 
L 125.974425 53.655149 
L 125.976793 53.655149 
L 127.174127 53.544207 
L 127.286076 53.532529 
L 128.505201 53.421588 
L 128.616202 53.412829 
L 129.990697 53.301887 
L 130.089067 53.28729 
L 130.101067 53.28729 
L 131.274085 53.176348 
L 131.38114 53.16467 
L 131.384613 53.16467 
L 132.813109 53.053728 
L 132.913374 53.049349 
L 132.92269 53.049349 
L 134.21271 52.938407 
L 134.317869 52.925269 
L 134.318343 52.925269 
L 135.700101 52.814328 
L 135.804471 52.805569 
L 137.184808 52.694627 
L 137.288389 52.682949 
L 137.293125 52.682949 
L 138.833412 52.572008 
L 138.943151 52.55887 
L 140.316698 52.447928 
L 140.412542 52.43625 
L 140.426753 52.43625 
L 141.603876 52.325308 
L 141.697351 52.310711 
L 141.707299 52.310711 
L 142.890738 52.199769 
L 142.986108 52.183712 
L 143.000319 52.183712 
L 144.137968 52.07277 
L 144.217074 52.056712 
L 144.248969 52.056712 
L 145.687097 51.945771 
L 145.775046 51.937012 
L 145.797783 51.937012 
L 147.141961 51.82607 
L 147.189015 51.817312 
L 147.252805 51.817312 
L 148.650353 51.70637 
L 148.761355 51.697612 
L 150.075217 51.58667 
L 150.167903 51.572072 
L 150.185745 51.572072 
L 151.797244 51.461131 
L 151.903193 51.445073 
L 151.904614 51.445073 
L 153.57564 51.334131 
L 153.686641 51.319534 
L 155.529617 51.208592 
L 155.628303 51.199834 
L 155.634934 51.199834 
L 157.295381 51.088892 
L 157.366277 51.071375 
L 157.405278 51.071375 
L 158.829352 50.960433 
L 158.931196 50.951674 
L 158.938933 50.951674 
L 160.439114 50.840733 
L 160.537957 50.833434 
L 160.545063 50.833434 
L 162.320143 50.722492 
L 162.42625 50.713734 
L 164.111328 50.602792 
L 164.159645 50.598413 
L 164.222172 50.598413 
L 165.974515 50.487471 
L 166.068622 50.478712 
L 166.084253 50.478712 
L 167.487959 50.367771 
L 167.570382 50.359012 
L 167.59675 50.359012 
L 169.460726 50.24807 
L 169.565412 50.239312 
L 169.571728 50.239312 
L 170.592691 50.12837 
L 170.701009 50.115232 
L 170.701956 50.115232 
L 172.161873 50.00429 
L 172.186505 49.998451 
L 172.272717 49.998451 
L 173.587527 49.88751 
L 173.698529 49.871452 
L 175.178025 49.760511 
L 175.2595 49.751752 
L 175.282553 49.751752 
L 176.674417 49.64081 
L 176.785103 49.632052 
L 176.785418 49.632052 
L 178.320495 49.52111 
L 178.41918 49.513811 
L 178.431338 49.513811 
L 179.660726 49.40287 
L 179.741727 49.389732 
L 179.77157 49.389732 
L 181.137538 49.27879 
L 181.231645 49.270031 
L 181.247277 49.270031 
L 182.501296 49.15909 
L 182.603929 49.144492 
L 182.609929 49.144492 
L 183.853527 49.03355 
L 183.94195 49.023332 
L 183.961213 49.023332 
L 185.381182 48.91239 
L 185.49171 48.897793 
L 186.738466 48.786851 
L 186.830205 48.779552 
L 186.842047 48.779552 
L 187.894747 48.66861 
L 187.999275 48.658392 
L 188.004486 48.658392 
L 189.264663 48.54745 
L 189.360665 48.534313 
L 189.37456 48.534313 
L 190.560367 48.423371 
L 190.671369 48.410233 
L 191.467013 48.300751 
L 191.467013 48.299291 
L 191.575804 48.287613 
L 192.606715 48.176671 
L 192.716295 48.163534 
L 192.717559 48.163534 
L 193.661152 48.052592 
L 193.768364 48.036535 
L 193.770101 48.036535 
L 194.698694 47.925593 
L 194.789012 47.912455 
L 194.809538 47.912455 
L 195.85766 47.801513 
L 195.969925 47.792755 
L 196.933887 47.681813 
L 197.047415 47.662836 
L 197.982166 47.551894 
L 198.092062 47.534377 
L 199.309608 47.423436 
L 199.41903 47.407378 
L 199.420451 47.407378 
L 200.312886 47.296436 
L 200.402256 47.281839 
L 200.422309 47.281839 
L 201.206268 47.170897 
L 201.30227 47.159219 
L 201.316954 47.159219 
L 202.331444 47.049737 
L 202.39555 47.038059 
L 202.442287 47.038059 
L 203.457724 46.927117 
L 203.542357 46.916899 
L 203.568252 46.916899 
L 204.591742 46.805957 
L 204.672743 46.797199 
L 204.702743 46.797199 
L 205.778497 46.686257 
L 205.86534 46.674579 
L 205.884446 46.674579 
L 207.174781 46.563637 
L 207.27173 46.551959 
L 207.284994 46.551959 
L 208.405748 46.441017 
L 208.484381 46.430799 
L 208.513592 46.430799 
L 209.704768 46.319857 
L 209.787664 46.30526 
L 209.815769 46.30526 
L 211.288319 46.194318 
L 211.382741 46.18118 
L 211.395846 46.18118 
L 212.748394 46.070238 
L 212.852448 46.06148 
L 212.858922 46.06148 
L 213.721988 45.950538 
L 213.829831 45.9374 
L 213.83141 45.9374 
L 214.96827 45.826459 
L 215.085272 45.810401 
L 216.468925 45.699459 
L 216.548663 45.687781 
L 216.578979 45.687781 
L 217.634048 45.57684 
L 217.721049 45.563702 
L 217.742681 45.563702 
L 219.057807 45.45276 
L 219.151124 45.444001 
L 219.16865 45.444001 
L 220.599673 45.33306 
L 220.696779 45.318462 
L 220.705622 45.318462 
L 221.837428 45.20752 
L 221.939114 45.194383 
L 221.94843 45.194383 
L 223.178133 45.083441 
L 223.283924 45.074682 
L 223.287556 45.074682 
L 224.557997 44.963741 
L 224.646893 44.952063 
L 224.668841 44.952063 
L 225.900754 44.841121 
L 225.998335 44.827983 
L 226.011598 44.827983 
L 227.316776 44.717041 
L 227.413567 44.708283 
L 227.42683 44.708283 
L 228.501163 44.597341 
L 228.600164 44.587123 
L 228.611691 44.587123 
L 229.839973 44.476181 
L 229.916869 44.470342 
L 229.950185 44.470342 
L 230.819093 44.3594 
L 230.925832 44.347722 
L 230.929779 44.347722 
L 232.054954 44.23678 
L 232.125534 44.230941 
L 232.16564 44.230941 
L 233.213288 44.12 
L 233.320026 44.109781 
L 233.324132 44.109781 
L 234.18325 43.998839 
L 234.261094 43.987161 
L 234.294252 43.987161 
L 235.368426 43.87622 
L 235.481639 43.860162 
L 236.424285 43.749221 
L 236.535918 43.737543 
L 237.651935 43.626601 
L 237.7522 43.609084 
L 237.762937 43.609084 
L 238.96785 43.498142 
L 239.080747 43.483544 
L 240.121131 43.372603 
L 240.224712 43.360925 
L 240.231817 43.360925 
L 241.242201 43.249983 
L 241.349729 43.238305 
L 241.353203 43.238305 
L 242.5398 43.127363 
L 242.638802 43.117145 
L 242.65017 43.117145 
L 243.805662 43.006203 
L 243.918085 42.990146 
L 245.135472 42.879204 
L 245.231789 42.860227 
L 245.246316 42.860227 
L 246.464176 42.749285 
L 246.576126 42.740527 
L 247.852566 42.629585 
L 247.965147 42.612068 
L 249.146376 42.501126 
L 249.25943 42.487988 
L 250.247077 42.377047 
L 250.359658 42.359529 
L 251.463043 42.248588 
L 251.577834 42.241289 
L 252.761273 42.130347 
L 252.868486 42.117209 
L 252.872275 42.117209 
L 254.365667 42.006268 
L 254.472879 41.996049 
L 254.476195 41.996049 
L 255.471263 41.885108 
L 255.574369 41.87197 
L 255.581949 41.87197 
L 256.560753 41.761028 
L 256.678229 41.742051 
L 257.824878 41.631109 
L 257.936985 41.623811 
L 259.2499 41.512869 
L 259.343691 41.496812 
L 259.360902 41.496812 
L 261.001769 41.38587 
L 261.043612 41.377111 
L 261.111981 41.377111 
L 262.263683 41.26617 
L 262.310736 41.254491 
L 262.374369 41.254491 
L 263.633125 41.14355 
L 263.744601 41.14063 
L 265.208465 41.029688 
L 265.293256 41.01801 
L 265.319309 41.01801 
L 266.393957 40.907069 
L 266.50638 40.89977 
L 267.944981 40.788828 
L 268.061351 40.774231 
L 269.315844 40.663289 
L 269.428267 40.65307 
L 270.861658 40.542129 
L 270.967765 40.526071 
L 270.972344 40.526071 
L 272.231731 40.41513 
L 272.347628 40.403452 
L 273.902441 40.29251 
L 273.989916 40.282292 
L 274.012496 40.282292 
L 275.444307 40.17135 
L 275.532256 40.156752 
L 275.554677 40.156752 
L 276.863329 40.04581 
L 276.962804 40.038512 
L 276.974331 40.038512 
L 278.469459 39.92757 
L 278.566092 39.915892 
L 278.580145 39.915892 
L 280.183591 39.80495 
L 280.26175 39.796192 
L 280.294435 39.796192 
L 281.888722 39.68525 
L 281.995461 39.675032 
L 281.999724 39.675032 
L 283.361429 39.56409 
L 283.47101 39.558251 
L 284.625396 39.447309 
L 284.717766 39.437091 
L 284.736398 39.437091 
L 286.297685 39.326149 
L 286.392265 39.31739 
L 286.408687 39.31739 
L 288.134187 39.206449 
L 288.231925 39.194771 
L 288.245189 39.194771 
L 289.856372 39.083829 
L 289.949531 39.070691 
L 289.967057 39.070691 
L 291.650241 38.959749 
L 291.733295 38.949531 
L 291.761243 38.949531 
L 293.423742 38.838589 
L 293.48927 38.829831 
L 293.534428 38.829831 
L 295.133611 38.718889 
L 295.191243 38.71305 
L 295.244139 38.71305 
L 296.673582 38.602108 
L 296.785689 38.59189 
L 298.351397 38.480948 
L 298.454662 38.46927 
L 298.461609 38.46927 
L 300.043265 38.358328 
L 300.150162 38.353949 
L 300.15332 38.353949 
L 302.111245 38.243007 
L 302.224299 38.22987 
L 304.026221 38.118928 
L 304.143065 38.10287 
L 305.816933 37.991929 
L 305.92304 37.98317 
L 305.927303 37.98317 
L 307.610645 37.872228 
L 307.723384 37.86201 
L 309.429463 37.751068 
L 309.502253 37.74231 
L 309.540306 37.74231 
L 311.449125 37.631368 
L 311.493968 37.624069 
L 311.558706 37.624069 
L 313.275838 37.513128 
L 313.388576 37.502909 
L 315.403818 37.391968 
L 315.445819 37.386129 
L 315.51482 37.386129 
L 317.44906 37.275187 
L 317.560851 37.267888 
L 319.661831 37.156946 
L 319.774096 37.148188 
L 322.28245 37.037246 
L 322.394557 37.032867 
L 324.737751 36.921925 
L 324.771383 36.919005 
L 324.847648 36.919005 
L 326.743835 36.808064 
L 326.836047 36.802225 
L 326.853731 36.802225 
L 328.655338 36.691283 
L 328.761603 36.679605 
L 328.766182 36.679605 
L 331.227957 36.568663 
L 331.339432 36.567203 
L 333.144986 36.456262 
L 333.24083 36.448963 
L 333.25583 36.448963 
L 335.284809 36.338021 
L 335.382705 36.327803 
L 335.395652 36.327803 
L 337.417999 36.216861 
L 337.497895 36.211022 
L 337.528843 36.211022 
L 338.969813 36.10008 
L 339.082235 36.089862 
L 340.711418 35.97892 
L 340.815946 35.968702 
L 340.822262 35.968702 
L 342.14702 35.85776 
L 342.255179 35.843163 
L 343.077823 35.732221 
L 343.177614 35.720543 
L 343.188667 35.720543 
L 343.961258 35.609601 
L 344.052049 35.597923 
L 345.303068 35.55267 
L 345.303068 35.55267 
" clip-path="url(#p5e7c5b3a8c)" style="fill: none; stroke: #1f77b4; stroke-width: 2; stroke-linecap: square"/>
   </g>
   <g id="line2d_26">
    <path d="M 58.139432 300.24358 
L 345.303068 35.55267 
" clip-path="url(#p5e7c5b3a8c)" style="fill: none; stroke-dasharray: 3.7,1.6; stroke-dashoffset: 0; stroke: #ff7f0e"/>
   </g>
   <g id="patch_3">
    <path d="M 43.78125 313.478125 
L 43.78125 22.318125 
" style="fill: none; stroke: #000000; stroke-width: 0.8; stroke-linejoin: miter; stroke-linecap: square"/>
   </g>
   <g id="patch_4">
    <path d="M 359.66125 313.478125 
L 359.66125 22.318125 
" style="fill: none; stroke: #000000; stroke-width: 0.8; stroke-linejoin: miter; stroke-linecap: square"/>
   </g>
   <g id="patch_5">
    <path d="M 43.78125 313.478125 
L 359.66125 313.478125 
" style="fill: none; stroke: #000000; stroke-width: 0.8; stroke-linejoin: miter; stroke-linecap: square"/>
   </g>
   <g id="patch_6">
    <path d="M 43.78125 22.318125 
L 359.66125 22.318125 
" style="fill: none; stroke: #000000; stroke-width: 0.8; stroke-linejoin: miter; stroke-linecap: square"/>
   </g>
   <g id="text_15">
    <!-- Pixel-level ROC Curve -->
    <g transform="translate(136.818125 16.318125) scale(0.12 -0.12)">
     <defs>
      <path id="DejaVuSans-78" d="M 3513 3500 
L 2247 1797 
L 3578 0 
L 2900 0 
L 1881 1375 
L 863 0 
L 184 0 
L 1544 1831 
L 300 3500 
L 978 3500 
L 1906 2253 
L 2834 3500 
L 3513 3500 
z
" transform="scale(0.015625)"/>
      <path id="DejaVuSans-2d" d="M 313 2009 
L 1997 2009 
L 1997 1497 
L 313 1497 
L 313 2009 
z
" transform="scale(0.015625)"/>
      <path id="DejaVuSans-4f" d="M 2522 4238 
Q 1834 4238 1429 3725 
Q 1025 3213 1025 2328 
Q 1025 1447 1429 934 
Q 1834 422 2522 422 
Q 3209 422 3611 934 
Q 4013 1447 4013 2328 
Q 4013 3213 3611 3725 
Q 3209 4238 2522 4238 
z
M 2522 4750 
Q 3503 4750 4090 4092 
Q 4678 3434 4678 2328 
Q 4678 1225 4090 567 
Q 3503 -91 2522 -91 
Q 1538 -91 948 565 
Q 359 1222 359 2328 
Q 359 3434 948 4092 
Q 1538 4750 2522 4750 
z
" transform="scale(0.015625)"/>
      <path id="DejaVuSans-43" d="M 4122 4306 
L 4122 3641 
Q 3803 3938 3442 4084 
Q 3081 4231 2675 4231 
Q 1875 4231 1450 3742 
Q 1025 3253 1025 2328 
Q 1025 1406 1450 917 
Q 1875 428 2675 428 
Q 3081 428 3442 575 
Q 3803 722 4122 1019 
L 4122 359 
Q 3791 134 3420 21 
Q 3050 -91 2638 -91 
Q 1578 -91 968 557 
Q 359 1206 359 2328 
Q 359 3453 968 4101 
Q 1578 4750 2638 4750 
Q 3056 4750 3426 4639 
Q 3797 4528 4122 4306 
z
" transform="scale(0.015625)"/>
     </defs>
     <use xlink:href="#DejaVuSans-50"/>
     <use xlink:href="#DejaVuSans-69" transform="translate(58.052734 0)"/>
     <use xlink:href="#DejaVuSans-78" transform="translate(85.835938 0)"/>
     <use xlink:href="#DejaVuSans-65" transform="translate(141.890625 0)"/>
     <use xlink:href="#DejaVuSans-6c" transform="translate(203.414062 0)"/>
     <use xlink:href="#DejaVuSans-2d" transform="translate(231.197266 0)"/>
     <use xlink:href="#DejaVuSans-6c" transform="translate(267.28125 0)"/>
     <use xlink:href="#DejaVuSans-65" transform="translate(295.064453 0)"/>
     <use xlink:href="#DejaVuSans-76" transform="translate(356.587891 0)"/>
     <use xlink:href="#DejaVuSans-65" transform="translate(415.767578 0)"/>
     <use xlink:href="#DejaVuSans-6c" transform="translate(477.291016 0)"/>
     <use xlink:href="#DejaVuSans-20" transform="translate(505.074219 0)"/>
     <use xlink:href="#DejaVuSans-52" transform="translate(536.861328 0)"/>
     <use xlink:href="#DejaVuSans-4f" transform="translate(606.34375 0)"/>
     <use xlink:href="#DejaVuSans-43" transform="translate(685.054688 0)"/>
     <use xlink:href="#DejaVuSans-20" transform="translate(754.878906 0)"/>
     <use xlink:href="#DejaVuSans-43" transform="translate(786.666016 0)"/>
     <use xlink:href="#DejaVuSans-75" transform="translate(856.490234 0)"/>
     <use xlink:href="#DejaVuSans-72" transform="translate(919.869141 0)"/>
     <use xlink:href="#DejaVuSans-76" transform="translate(960.982422 0)"/>
     <use xlink:href="#DejaVuSans-65" transform="translate(1020.162109 0)"/>
    </g>
   </g>
   <g id="legend_1">
    <g id="line2d_27">
     <path d="M 52.78125 35.416563 
L 62.78125 35.416563 
L 72.78125 35.416563 
" style="fill: none; stroke: #1f77b4; stroke-width: 2; stroke-linecap: square"/>
    </g>
    <g id="text_16">
     <!-- Ours AUC = 0.941 -->
     <g transform="translate(80.78125 38.916563) scale(0.1 -0.1)">
      <defs>
       <path id="DejaVuSans-41" d="M 2188 4044 
L 1331 1722 
L 3047 1722 
L 2188 4044 
z
M 1831 4666 
L 2547 4666 
L 4325 0 
L 3669 0 
L 3244 1197 
L 1141 1197 
L 716 0 
L 50 0 
L 1831 4666 
z
" transform="scale(0.015625)"/>
       <path id="DejaVuSans-55" d="M 556 4666 
L 1191 4666 
L 1191 1831 
Q 1191 1081 1462 751 
Q 1734 422 2344 422 
Q 2950 422 3222 751 
Q 3494 1081 3494 1831 
L 3494 4666 
L 4128 4666 
L 4128 1753 
Q 4128 841 3676 375 
Q 3225 -91 2344 -91 
Q 1459 -91 1007 375 
Q 556 841 556 1753 
L 556 4666 
z
" transform="scale(0.015625)"/>
       <path id="DejaVuSans-3d" d="M 678 2906 
L 4684 2906 
L 4684 2381 
L 678 2381 
L 678 2906 
z
M 678 1631 
L 4684 1631 
L 4684 1100 
L 678 1100 
L 678 1631 
z
" transform="scale(0.015625)"/>
       <path id="DejaVuSans-39" d="M 703 97 
L 703 672 
Q 941 559 1184 500 
Q 1428 441 1663 441 
Q 2288 441 2617 861 
Q 2947 1281 2994 2138 
Q 2813 1869 2534 1725 
Q 2256 1581 1919 1581 
Q 1219 1581 811 2004 
Q 403 2428 403 3163 
Q 403 3881 828 4315 
Q 1253 4750 1959 4750 
Q 2769 4750 3195 4129 
Q 3622 3509 3622 2328 
Q 3622 1225 3098 567 
Q 2575 -91 1691 -91 
Q 1453 -91 1209 -44 
Q 966 3 703 97 
z
M 1959 2075 
Q 2384 2075 2632 2365 
Q 2881 2656 2881 3163 
Q 2881 3666 2632 3958 
Q 2384 4250 1959 4250 
Q 1534 4250 1286 3958 
Q 1038 3666 1038 3163 
Q 1038 2656 1286 2365 
Q 1534 2075 1959 2075 
z
" transform="scale(0.015625)"/>
      </defs>
      <use xlink:href="#DejaVuSans-4f"/>
      <use xlink:href="#DejaVuSans-75" transform="translate(78.710938 0)"/>
      <use xlink:href="#DejaVuSans-72" transform="translate(142.089844 0)"/>
      <use xlink:href="#DejaVuSans-73" transform="translate(183.203125 0)"/>
      <use xlink:href="#DejaVuSans-20" transform="translate(235.302734 0)"/>
      <use xlink:href="#DejaVuSans-41" transform="translate(267.089844 0)"/>
      <use xlink:href="#DejaVuSans-55" transform="translate(335.498047 0)"/>
      <use xlink:href="#DejaVuSans-43" transform="translate(408.691406 0)"/>
      <use xlink:href="#DejaVuSans-20" transform="translate(478.515625 0)"/>
      <use xlink:href="#DejaVuSans-3d" transform="translate(510.302734 0)"/>
      <use xlink:href="#DejaVuSans-20" transform="translate(594.091797 0)"/>
      <use xlink:href="#DejaVuSans-30" transform="translate(625.878906 0)"/>
      <use xlink:href="#DejaVuSans-2e" transform="translate(689.501953 0)"/>
      <use xlink:href="#DejaVuSans-39" transform="translate(721.289062 0)"/>
      <use xlink:href="#DejaVuSans-34" transform="translate(784.912109 0)"/>
      <use xlink:href="#DejaVuSans-31" transform="translate(848.535156 0)"/>
     </g>
    </g>
   </g>
  </g>
 </g>
 <defs>
  <clipPath id="p5e7c5b3a8c">
   <rect x="43.78125" y="22.318125" width="315.88" height="291.16"/>
  </clipPath>
 </defs>
</svg>
