<?xml version="1.0" encoding="utf-8" standalone="no"?>
<!DOCTYPE svg PUBLIC "-//W3C//DTD SVG 1.1//EN"
  "http://www.w3.org/Graphics/SVG/1.1/DTD/svg11.dtd">
<svg xmlns:xlink="http://www.w3.org/1999/xlink" width="510.92375pt" height="336.634375pt" viewBox="0 0 510.92375 336.634375" xmlns="http://www.w3.org/2000/svg" version="1.1">
 <metadata>
  <rdf:RDF xmlns:dc="http://purl.org/dc/elements/1.1/" xmlns:cc="http://creativecommons.org/ns#" xmlns:rdf="http://www.w3.org/1999/02/22-rdf-syntax-ns#">
   <cc:Work>
    <dc:type rdf:resource="http://purl.org/dc/dcmitype/StillImage"/>
    <dc:date>2026-06-20T22:23:59.523075</dc:date>
    <dc:format>image/svg+xml</dc:format>
    <dc:creator>
     <cc:Agent>
      <dc:title>Matplotlib v3.10.7, https://matplotlib.org/</dc:title>
     </cc:Agent>
    </dc:creator>
   </cc:Work>
  </rdf:RDF>
 </metadata>
 <defs>
  <style type="text/css">*{stroke-linejoin: round; stroke-linecap: butt}</style>
 </defs>
 <g id="figure_1">
  <g id="patch_1">
   <path d="M 0 336.634375 
L 510.92375 336.634375 
L 510.92375 0 
L 0 0 
z
" style="fill: #ffffff"/>
  </g>
  <g id="axes_1">
   <g id="patch_2">
    <path d="M 50.14375 299.078125 
L 503.72375 299.078125 
L 503.72375 22.318125 
L 50.14375 22.318125 
z
" style="fill: #ffffff"/>
   </g>
   <g id="matplotlib.axis_1">
    <g id="xtick_1">
     <g id="line2d_1">
      <path d="M 66.595917 299.078125 
L 66.595917 22.318125 
" clip-path="url(#p99ad746a38)" style="fill: none; stroke-dasharray: 2.96,1.28; stroke-dashoffset: 0; stroke: #b0b0b0; stroke-opacity: 0.35; stroke-width: 0.8"/>
     </g>
     <g id="line2d_2">
      <defs>
       <path id="m11ddcd23ca" d="M 0 0 
L 0 3.5 
" style="stroke: #000000; stroke-width: 0.8"/>
      </defs>
      <g>
       <use xlink:href="#m11ddcd23ca" x="66.595917" y="299.078125" style="stroke: #000000; stroke-width: 0.8"/>
      </g>
     </g>
     <g id="text_1">
      <!-- 0 -->
      <g transform="translate(63.414667 313.676562) scale(0.1 -0.1)">
       <defs>
        <path id="DejaVuSans-30" d="M 2034 4250 
Q 1547 4250 1301 3770 
Q 1056 3291 1056 2328 
Q 1056 1369 1301 889 
Q 1547 409 2034 409 
Q 2525 409 2770 889 
Q 3016 1369 3016 2328 
Q 3016 3291 2770 3770 
Q 2525 4250 2034 4250 
z
M 2034 4750 
Q 2819 4750 3233 4129 
Q 3647 3509 3647 2328 
Q 3647 1150 3233 529 
Q 2819 -91 2034 -91 
Q 1250 -91 836 529 
Q 422 1150 422 2328 
Q 422 3509 836 4129 
Q 1250 4750 2034 4750 
z
" transform="scale(0.015625)"/>
       </defs>
       <use xlink:href="#DejaVuSans-30"/>
      </g>
     </g>
    </g>
    <g id="xtick_2">
     <g id="line2d_3">
      <path d="M 149.898029 299.078125 
L 149.898029 22.318125 
" clip-path="url(#p99ad746a38)" style="fill: none; stroke-dasharray: 2.96,1.28; stroke-dashoffset: 0; stroke: #b0b0b0; stroke-opacity: 0.35; stroke-width: 0.8"/>
     </g>
     <g id="line2d_4">
      <g>
       <use xlink:href="#m11ddcd23ca" x="149.898029" y="299.078125" style="stroke: #000000; stroke-width: 0.8"/>
      </g>
     </g>
     <g id="text_2">
      <!-- 20 -->
      <g transform="translate(143.535529 313.676562) scale(0.1 -0.1)">
       <defs>
        <path id="DejaVuSans-32" d="M 1228 531 
L 3431 531 
L 3431 0 
L 469 0 
L 469 531 
Q 828 903 1448 1529 
Q 2069 2156 2228 2338 
Q 2531 2678 2651 2914 
Q 2772 3150 2772 3378 
Q 2772 3750 2511 3984 
Q 2250 4219 1831 4219 
Q 1534 4219 1204 4116 
Q 875 4013 500 3803 
L 500 4441 
Q 881 4594 1212 4672 
Q 1544 4750 1819 4750 
Q 2544 4750 2975 4387 
Q 3406 4025 3406 3419 
Q 3406 3131 3298 2873 
Q 3191 2616 2906 2266 
Q 2828 2175 2409 1742 
Q 1991 1309 1228 531 
z
" transform="scale(0.015625)"/>
       </defs>
       <use xlink:href="#DejaVuSans-32"/>
       <use xlink:href="#DejaVuSans-30" transform="translate(63.623047 0)"/>
      </g>
     </g>
    </g>
    <g id="xtick_3">
     <g id="line2d_5">
      <path d="M 233.200141 299.078125 
L 233.200141 22.318125 
" clip-path="url(#p99ad746a38)" style="fill: none; stroke-dasharray: 2.96,1.28; stroke-dashoffset: 0; stroke: #b0b0b0; stroke-opacity: 0.35; stroke-width: 0.8"/>
     </g>
     <g id="line2d_6">
      <g>
       <use xlink:href="#m11ddcd23ca" x="233.200141" y="299.078125" style="stroke: #000000; stroke-width: 0.8"/>
      </g>
     </g>
     <g id="text_3">
      <!-- 40 -->
      <g transform="translate(226.837641 313.676562) scale(0.1 -0.1)">
       <defs>
        <path id="DejaVuSans-34" d="M 2419 4116 
L 825 1625 
L 2419 1625 
L 2419 4116 
z
M 2253 4666 
L 3047 4666 
L 3047 1625 
L 3713 1625 
L 3713 1100 
L 3047 1100 
L 3047 0 
L 2419 0 
L 2419 1100 
L 313 1100 
L 313 1709 
L 2253 4666 
z
" transform="scale(0.015625)"/>
       </defs>
       <use xlink:href="#DejaVuSans-34"/>
       <use xlink:href="#DejaVuSans-30" transform="translate(63.623047 0)"/>
      </g>
     </g>
    </g>
    <g id="xtick_4">
     <g id="line2d_7">
      <path d="M 316.502253 299.078125 
L 316.502253 22.318125 
" clip-path="url(#p99ad746a38)" style="fill: none; stroke-dasharray: 2.96,1.28; stroke-dashoffset: 0; stroke: #b0b0b0; stroke-opacity: 0.35; stroke-width: 0.8"/>
     </g>
     <g id="line2d_8">
      <g>
       <use xlink:href="#m11ddcd23ca" x="316.502253" y="299.078125" style="stroke: #000000; stroke-width: 0.8"/>
      </g>
     </g>
     <g id="text_4">
      <!-- 60 -->
      <g transform="translate(310.139753 313.676562) scale(0.1 -0.1)">
       <defs>
        <path id="DejaVuSans-36" d="M 2113 2584 
Q 1688 2584 1439 2293 
Q 1191 2003 1191 1497 
Q 1191 994 1439 701 
Q 1688 409 2113 409 
Q 2538 409 2786 701 
Q 3034 994 3034 1497 
Q 3034 2003 2786 2293 
Q 2538 2584 2113 2584 
z
M 3366 4563 
L 3366 3988 
Q 3128 4100 2886 4159 
Q 2644 4219 2406 4219 
Q 1781 4219 1451 3797 
Q 1122 3375 1075 2522 
Q 1259 2794 1537 2939 
Q 1816 3084 2150 3084 
Q 2853 3084 3261 2657 
Q 3669 2231 3669 1497 
Q 3669 778 3244 343 
Q 2819 -91 2113 -91 
Q 1303 -91 875 529 
Q 447 1150 447 2328 
Q 447 3434 972 4092 
Q 1497 4750 2381 4750 
Q 2619 4750 2861 4703 
Q 3103 4656 3366 4563 
z
" transform="scale(0.015625)"/>
       </defs>
       <use xlink:href="#DejaVuSans-36"/>
       <use xlink:href="#DejaVuSans-30" transform="translate(63.623047 0)"/>
      </g>
     </g>
    </g>
    <g id="xtick_5">
     <g id="line2d_9">
      <path d="M 399.804365 299.078125 
L 399.804365 22.318125 
" clip-path="url(#p99ad746a38)" style="fill: none; stroke-dasharray: 2.96,1.28; stroke-dashoffset: 0; stroke: #b0b0b0; stroke-opacity: 0.35; stroke-width: 0.8"/>
     </g>
     <g id="line2d_10">
      <g>
       <use xlink:href="#m11ddcd23ca" x="399.804365" y="299.078125" style="stroke: #000000; stroke-width: 0.8"/>
      </g>
     </g>
     <g id="text_5">
      <!-- 80 -->
      <g transform="translate(393.441865 313.676562) scale(0.1 -0.1)">
       <defs>
        <path id="DejaVuSans-38" d="M 2034 2216 
Q 1584 2216 1326 1975 
Q 1069 1734 1069 1313 
Q 1069 891 1326 650 
Q 1584 409 2034 409 
Q 2484 409 2743 651 
Q 3003 894 3003 1313 
Q 3003 1734 2745 1975 
Q 2488 2216 2034 2216 
z
M 1403 2484 
Q 997 2584 770 2862 
Q 544 3141 544 3541 
Q 544 4100 942 4425 
Q 1341 4750 2034 4750 
Q 2731 4750 3128 4425 
Q 3525 4100 3525 3541 
Q 3525 3141 3298 2862 
Q 3072 2584 2669 2484 
Q 3125 2378 3379 2068 
Q 3634 1759 3634 1313 
Q 3634 634 3220 271 
Q 2806 -91 2034 -91 
Q 1263 -91 848 271 
Q 434 634 434 1313 
Q 434 1759 690 2068 
Q 947 2378 1403 2484 
z
M 1172 3481 
Q 1172 3119 1398 2916 
Q 1625 2713 2034 2713 
Q 2441 2713 2670 2916 
Q 2900 3119 2900 3481 
Q 2900 3844 2670 4047 
Q 2441 4250 2034 4250 
Q 1625 4250 1398 4047 
Q 1172 3844 1172 3481 
z
" transform="scale(0.015625)"/>
       </defs>
       <use xlink:href="#DejaVuSans-38"/>
       <use xlink:href="#DejaVuSans-30" transform="translate(63.623047 0)"/>
      </g>
     </g>
    </g>
    <g id="xtick_6">
     <g id="line2d_11">
      <path d="M 483.106477 299.078125 
L 483.106477 22.318125 
" clip-path="url(#p99ad746a38)" style="fill: none; stroke-dasharray: 2.96,1.28; stroke-dashoffset: 0; stroke: #b0b0b0; stroke-opacity: 0.35; stroke-width: 0.8"/>
     </g>
     <g id="line2d_12">
      <g>
       <use xlink:href="#m11ddcd23ca" x="483.106477" y="299.078125" style="stroke: #000000; stroke-width: 0.8"/>
      </g>
     </g>
     <g id="text_6">
      <!-- 100 -->
      <g transform="translate(473.562727 313.676562) scale(0.1 -0.1)">
       <defs>
        <path id="DejaVuSans-31" d="M 794 531 
L 1825 531 
L 1825 4091 
L 703 3866 
L 703 4441 
L 1819 4666 
L 2450 4666 
L 2450 531 
L 3481 531 
L 3481 0 
L 794 0 
L 794 531 
z
" transform="scale(0.015625)"/>
       </defs>
       <use xlink:href="#DejaVuSans-31"/>
       <use xlink:href="#DejaVuSans-30" transform="translate(63.623047 0)"/>
       <use xlink:href="#DejaVuSans-30" transform="translate(127.246094 0)"/>
      </g>
     </g>
    </g>
    <g id="text_7">
     <!-- Epoch -->
     <g transform="translate(261.622812 327.354687) scale(0.1 -0.1)">
      <defs>
       <path id="DejaVuSans-45" d="M 628 4666 
L 3578 4666 
L 3578 4134 
L 1259 4134 
L 1259 2753 
L 3481 2753 
L 3481 2222 
L 1259 2222 
L 1259 531 
L 3634 531 
L 3634 0 
L 628 0 
L 628 4666 
z
" transform="scale(0.015625)"/>
       <path id="DejaVuSans-70" d="M 1159 525 
L 1159 -1331 
L 581 -1331 
L 581 3500 
L 1159 3500 
L 1159 2969 
Q 1341 3281 1617 3432 
Q 1894 3584 2278 3584 
Q 2916 3584 3314 3078 
Q 3713 2572 3713 1747 
Q 3713 922 3314 415 
Q 2916 -91 2278 -91 
Q 1894 -91 1617 61 
Q 1341 213 1159 525 
z
M 3116 1747 
Q 3116 2381 2855 2742 
Q 2594 3103 2138 3103 
Q 1681 3103 1420 2742 
Q 1159 2381 1159 1747 
Q 1159 1113 1420 752 
Q 1681 391 2138 391 
Q 2594 391 2855 752 
Q 3116 1113 3116 1747 
z
" transform="scale(0.015625)"/>
       <path id="DejaVuSans-6f" d="M 1959 3097 
Q 1497 3097 1228 2736 
Q 959 2375 959 1747 
Q 959 1119 1226 758 
Q 1494 397 1959 397 
Q 2419 397 2687 759 
Q 2956 1122 2956 1747 
Q 2956 2369 2687 2733 
Q 2419 3097 1959 3097 
z
M 1959 3584 
Q 2709 3584 3137 3096 
Q 3566 2609 3566 1747 
Q 3566 888 3137 398 
Q 2709 -91 1959 -91 
Q 1206 -91 779 398 
Q 353 888 353 1747 
Q 353 2609 779 3096 
Q 1206 3584 1959 3584 
z
" transform="scale(0.015625)"/>
       <path id="DejaVuSans-63" d="M 3122 3366 
L 3122 2828 
Q 2878 2963 2633 3030 
Q 2388 3097 2138 3097 
Q 1578 3097 1268 2742 
Q 959 2388 959 1747 
Q 959 1106 1268 751 
Q 1578 397 2138 397 
Q 2388 397 2633 464 
Q 2878 531 3122 666 
L 3122 134 
Q 2881 22 2623 -34 
Q 2366 -91 2075 -91 
Q 1284 -91 818 406 
Q 353 903 353 1747 
Q 353 2603 823 3093 
Q 1294 3584 2113 3584 
Q 2378 3584 2631 3529 
Q 2884 3475 3122 3366 
z
" transform="scale(0.015625)"/>
       <path id="DejaVuSans-68" d="M 3513 2113 
L 3513 0 
L 2938 0 
L 2938 2094 
Q 2938 2591 2744 2837 
Q 2550 3084 2163 3084 
Q 1697 3084 1428 2787 
Q 1159 2491 1159 1978 
L 1159 0 
L 581 0 
L 581 4863 
L 1159 4863 
L 1159 2956 
Q 1366 3272 1645 3428 
Q 1925 3584 2291 3584 
Q 2894 3584 3203 3211 
Q 3513 2838 3513 2113 
z
" transform="scale(0.015625)"/>
      </defs>
      <use xlink:href="#DejaVuSans-45"/>
      <use xlink:href="#DejaVuSans-70" transform="translate(63.183594 0)"/>
      <use xlink:href="#DejaVuSans-6f" transform="translate(126.660156 0)"/>
      <use xlink:href="#DejaVuSans-63" transform="translate(187.841797 0)"/>
      <use xlink:href="#DejaVuSans-68" transform="translate(242.822266 0)"/>
     </g>
    </g>
   </g>
   <g id="matplotlib.axis_2">
    <g id="ytick_1">
     <g id="line2d_13">
      <path d="M 50.14375 259.887722 
L 503.72375 259.887722 
" clip-path="url(#p99ad746a38)" style="fill: none; stroke-dasharray: 2.96,1.28; stroke-dashoffset: 0; stroke: #b0b0b0; stroke-opacity: 0.35; stroke-width: 0.8"/>
     </g>
     <g id="line2d_14">
      <defs>
       <path id="me39c9115dd" d="M 0 0 
L -3.5 0 
" style="stroke: #000000; stroke-width: 0.8"/>
      </defs>
      <g>
       <use xlink:href="#me39c9115dd" x="50.14375" y="259.887722" style="stroke: #000000; stroke-width: 0.8"/>
      </g>
     </g>
     <g id="text_8">
      <!-- 0.40 -->
      <g transform="translate(20.878125 263.686941) scale(0.1 -0.1)">
       <defs>
        <path id="DejaVuSans-2e" d="M 684 794 
L 1344 794 
L 1344 0 
L 684 0 
L 684 794 
z
" transform="scale(0.015625)"/>
       </defs>
       <use xlink:href="#DejaVuSans-30"/>
       <use xlink:href="#DejaVuSans-2e" transform="translate(63.623047 0)"/>
       <use xlink:href="#DejaVuSans-34" transform="translate(95.410156 0)"/>
       <use xlink:href="#DejaVuSans-30" transform="translate(159.033203 0)"/>
      </g>
     </g>
    </g>
    <g id="ytick_2">
     <g id="line2d_15">
      <path d="M 50.14375 219.993262 
L 503.72375 219.993262 
" clip-path="url(#p99ad746a38)" style="fill: none; stroke-dasharray: 2.96,1.28; stroke-dashoffset: 0; stroke: #b0b0b0; stroke-opacity: 0.35; stroke-width: 0.8"/>
     </g>
     <g id="line2d_16">
      <g>
       <use xlink:href="#me39c9115dd" x="50.14375" y="219.993262" style="stroke: #000000; stroke-width: 0.8"/>
      </g>
     </g>
     <g id="text_9">
      <!-- 0.45 -->
      <g transform="translate(20.878125 223.79248) scale(0.1 -0.1)">
       <defs>
        <path id="DejaVuSans-35" d="M 691 4666 
L 3169 4666 
L 3169 4134 
L 1269 4134 
L 1269 2991 
Q 1406 3038 1543 3061 
Q 1681 3084 1819 3084 
Q 2600 3084 3056 2656 
Q 3513 2228 3513 1497 
Q 3513 744 3044 326 
Q 2575 -91 1722 -91 
Q 1428 -91 1123 -41 
Q 819 9 494 109 
L 494 744 
Q 775 591 1075 516 
Q 1375 441 1709 441 
Q 2250 441 2565 725 
Q 2881 1009 2881 1497 
Q 2881 1984 2565 2268 
Q 2250 2553 1709 2553 
Q 1456 2553 1204 2497 
Q 953 2441 691 2322 
L 691 4666 
z
" transform="scale(0.015625)"/>
       </defs>
       <use xlink:href="#DejaVuSans-30"/>
       <use xlink:href="#DejaVuSans-2e" transform="translate(63.623047 0)"/>
       <use xlink:href="#DejaVuSans-34" transform="translate(95.410156 0)"/>
       <use xlink:href="#DejaVuSans-35" transform="translate(159.033203 0)"/>
      </g>
     </g>
    </g>
    <g id="ytick_3">
     <g id="line2d_17">
      <path d="M 50.14375 180.098801 
L 503.72375 180.098801 
" clip-path="url(#p99ad746a38)" style="fill: none; stroke-dasharray: 2.96,1.28; stroke-dashoffset: 0; stroke: #b0b0b0; stroke-opacity: 0.35; stroke-width: 0.8"/>
     </g>
     <g id="line2d_18">
      <g>
       <use xlink:href="#me39c9115dd" x="50.14375" y="180.098801" style="stroke: #000000; stroke-width: 0.8"/>
      </g>
     </g>
     <g id="text_10">
      <!-- 0.50 -->
      <g transform="translate(20.878125 183.89802) scale(0.1 -0.1)">
       <use xlink:href="#DejaVuSans-30"/>
       <use xlink:href="#DejaVuSans-2e" transform="translate(63.623047 0)"/>
       <use xlink:href="#DejaVuSans-35" transform="translate(95.410156 0)"/>
       <use xlink:href="#DejaVuSans-30" transform="translate(159.033203 0)"/>
      </g>
     </g>
    </g>
    <g id="ytick_4">
     <g id="line2d_19">
      <path d="M 50.14375 140.204341 
L 503.72375 140.204341 
" clip-path="url(#p99ad746a38)" style="fill: none; stroke-dasharray: 2.96,1.28; stroke-dashoffset: 0; stroke: #b0b0b0; stroke-opacity: 0.35; stroke-width: 0.8"/>
     </g>
     <g id="line2d_20">
      <g>
       <use xlink:href="#me39c9115dd" x="50.14375" y="140.204341" style="stroke: #000000; stroke-width: 0.8"/>
      </g>
     </g>
     <g id="text_11">
      <!-- 0.55 -->
      <g transform="translate(20.878125 144.003559) scale(0.1 -0.1)">
       <use xlink:href="#DejaVuSans-30"/>
       <use xlink:href="#DejaVuSans-2e" transform="translate(63.623047 0)"/>
       <use xlink:href="#DejaVuSans-35" transform="translate(95.410156 0)"/>
       <use xlink:href="#DejaVuSans-35" transform="translate(159.033203 0)"/>
      </g>
     </g>
    </g>
    <g id="ytick_5">
     <g id="line2d_21">
      <path d="M 50.14375 100.30988 
L 503.72375 100.30988 
" clip-path="url(#p99ad746a38)" style="fill: none; stroke-dasharray: 2.96,1.28; stroke-dashoffset: 0; stroke: #b0b0b0; stroke-opacity: 0.35; stroke-width: 0.8"/>
     </g>
     <g id="line2d_22">
      <g>
       <use xlink:href="#me39c9115dd" x="50.14375" y="100.30988" style="stroke: #000000; stroke-width: 0.8"/>
      </g>
     </g>
     <g id="text_12">
      <!-- 0.60 -->
      <g transform="translate(20.878125 104.109099) scale(0.1 -0.1)">
       <use xlink:href="#DejaVuSans-30"/>
       <use xlink:href="#DejaVuSans-2e" transform="translate(63.623047 0)"/>
       <use xlink:href="#DejaVuSans-36" transform="translate(95.410156 0)"/>
       <use xlink:href="#DejaVuSans-30" transform="translate(159.033203 0)"/>
      </g>
     </g>
    </g>
    <g id="ytick_6">
     <g id="line2d_23">
      <path d="M 50.14375 60.41542 
L 503.72375 60.41542 
" clip-path="url(#p99ad746a38)" style="fill: none; stroke-dasharray: 2.96,1.28; stroke-dashoffset: 0; stroke: #b0b0b0; stroke-opacity: 0.35; stroke-width: 0.8"/>
     </g>
     <g id="line2d_24">
      <g>
       <use xlink:href="#me39c9115dd" x="50.14375" y="60.41542" style="stroke: #000000; stroke-width: 0.8"/>
      </g>
     </g>
     <g id="text_13">
      <!-- 0.65 -->
      <g transform="translate(20.878125 64.214639) scale(0.1 -0.1)">
       <use xlink:href="#DejaVuSans-30"/>
       <use xlink:href="#DejaVuSans-2e" transform="translate(63.623047 0)"/>
       <use xlink:href="#DejaVuSans-36" transform="translate(95.410156 0)"/>
       <use xlink:href="#DejaVuSans-35" transform="translate(159.033203 0)"/>
      </g>
     </g>
    </g>
    <g id="text_14">
     <!-- Validation Dice -->
     <g transform="translate(14.798438 198.042656) rotate(-90) scale(0.1 -0.1)">
      <defs>
       <path id="DejaVuSans-56" d="M 1831 0 
L 50 4666 
L 709 4666 
L 2188 738 
L 3669 4666 
L 4325 4666 
L 2547 0 
L 1831 0 
z
" transform="scale(0.015625)"/>
       <path id="DejaVuSans-61" d="M 2194 1759 
Q 1497 1759 1228 1600 
Q 959 1441 959 1056 
Q 959 750 1161 570 
Q 1363 391 1709 391 
Q 2188 391 2477 730 
Q 2766 1069 2766 1631 
L 2766 1759 
L 2194 1759 
z
M 3341 1997 
L 3341 0 
L 2766 0 
L 2766 531 
Q 2569 213 2275 61 
Q 1981 -91 1556 -91 
Q 1019 -91 701 211 
Q 384 513 384 1019 
Q 384 1609 779 1909 
Q 1175 2209 1959 2209 
L 2766 2209 
L 2766 2266 
Q 2766 2663 2505 2880 
Q 2244 3097 1772 3097 
Q 1472 3097 1187 3025 
Q 903 2953 641 2809 
L 641 3341 
Q 956 3463 1253 3523 
Q 1550 3584 1831 3584 
Q 2591 3584 2966 3190 
Q 3341 2797 3341 1997 
z
" transform="scale(0.015625)"/>
       <path id="DejaVuSans-6c" d="M 603 4863 
L 1178 4863 
L 1178 0 
L 603 0 
L 603 4863 
z
" transform="scale(0.015625)"/>
       <path id="DejaVuSans-69" d="M 603 3500 
L 1178 3500 
L 1178 0 
L 603 0 
L 603 3500 
z
M 603 4863 
L 1178 4863 
L 1178 4134 
L 603 4134 
L 603 4863 
z
" transform="scale(0.015625)"/>
       <path id="DejaVuSans-64" d="M 2906 2969 
L 2906 4863 
L 3481 4863 
L 3481 0 
L 2906 0 
L 2906 525 
Q 2725 213 2448 61 
Q 2172 -91 1784 -91 
Q 1150 -91 751 415 
Q 353 922 353 1747 
Q 353 2572 751 3078 
Q 1150 3584 1784 3584 
Q 2172 3584 2448 3432 
Q 2725 3281 2906 2969 
z
M 947 1747 
Q 947 1113 1208 752 
Q 1469 391 1925 391 
Q 2381 391 2643 752 
Q 2906 1113 2906 1747 
Q 2906 2381 2643 2742 
Q 2381 3103 1925 3103 
Q 1469 3103 1208 2742 
Q 947 2381 947 1747 
z
" transform="scale(0.015625)"/>
       <path id="DejaVuSans-74" d="M 1172 4494 
L 1172 3500 
L 2356 3500 
L 2356 3053 
L 1172 3053 
L 1172 1153 
Q 1172 725 1289 603 
Q 1406 481 1766 481 
L 2356 481 
L 2356 0 
L 1766 0 
Q 1100 0 847 248 
Q 594 497 594 1153 
L 594 3053 
L 172 3053 
L 172 3500 
L 594 3500 
L 594 4494 
L 1172 4494 
z
" transform="scale(0.015625)"/>
       <path id="DejaVuSans-6e" d="M 3513 2113 
L 3513 0 
L 2938 0 
L 2938 2094 
Q 2938 2591 2744 2837 
Q 2550 3084 2163 3084 
Q 1697 3084 1428 2787 
Q 1159 2491 1159 1978 
L 1159 0 
L 581 0 
L 581 3500 
L 1159 3500 
L 1159 2956 
Q 1366 3272 1645 3428 
Q 1925 3584 2291 3584 
Q 2894 3584 3203 3211 
Q 3513 2838 3513 2113 
z
" transform="scale(0.015625)"/>
       <path id="DejaVuSans-20" transform="scale(0.015625)"/>
       <path id="DejaVuSans-44" d="M 1259 4147 
L 1259 519 
L 2022 519 
Q 2988 519 3436 956 
Q 3884 1394 3884 2338 
Q 3884 3275 3436 3711 
Q 2988 4147 2022 4147 
L 1259 4147 
z
M 628 4666 
L 1925 4666 
Q 3281 4666 3915 4102 
Q 4550 3538 4550 2338 
Q 4550 1131 3912 565 
Q 3275 0 1925 0 
L 628 0 
L 628 4666 
z
" transform="scale(0.015625)"/>
       <path id="DejaVuSans-65" d="M 3597 1894 
L 3597 1613 
L 953 1613 
Q 991 1019 1311 708 
Q 1631 397 2203 397 
Q 2534 397 2845 478 
Q 3156 559 3463 722 
L 3463 178 
Q 3153 47 2828 -22 
Q 2503 -91 2169 -91 
Q 1331 -91 842 396 
Q 353 884 353 1716 
Q 353 2575 817 3079 
Q 1281 3584 2069 3584 
Q 2775 3584 3186 3129 
Q 3597 2675 3597 1894 
z
M 3022 2063 
Q 3016 2534 2758 2815 
Q 2500 3097 2075 3097 
Q 1594 3097 1305 2825 
Q 1016 2553 972 2059 
L 3022 2063 
z
" transform="scale(0.015625)"/>
      </defs>
      <use xlink:href="#DejaVuSans-56"/>
      <use xlink:href="#DejaVuSans-61" transform="translate(60.658203 0)"/>
      <use xlink:href="#DejaVuSans-6c" transform="translate(121.9375 0)"/>
      <use xlink:href="#DejaVuSans-69" transform="translate(149.720703 0)"/>
      <use xlink:href="#DejaVuSans-64" transform="translate(177.503906 0)"/>
      <use xlink:href="#DejaVuSans-61" transform="translate(240.980469 0)"/>
      <use xlink:href="#DejaVuSans-74" transform="translate(302.259766 0)"/>
      <use xlink:href="#DejaVuSans-69" transform="translate(341.46875 0)"/>
      <use xlink:href="#DejaVuSans-6f" transform="translate(369.251953 0)"/>
      <use xlink:href="#DejaVuSans-6e" transform="translate(430.433594 0)"/>
      <use xlink:href="#DejaVuSans-20" transform="translate(493.8125 0)"/>
      <use xlink:href="#DejaVuSans-44" transform="translate(525.599609 0)"/>
      <use xlink:href="#DejaVuSans-69" transform="translate(602.601562 0)"/>
      <use xlink:href="#DejaVuSans-63" transform="translate(630.384766 0)"/>
      <use xlink:href="#DejaVuSans-65" transform="translate(685.365234 0)"/>
     </g>
    </g>
   </g>
   <g id="line2d_25">
    <path d="M 70.761023 268.08364 
L 74.926128 173.492278 
L 79.091234 118.031797 
L 83.25634 207.221449 
L 87.421445 121.596766 
L 91.586551 103.907563 
L 95.751656 111.435647 
L 99.916762 122.092256 
L 104.081868 91.772466 
L 108.246973 144.174637 
L 112.412079 134.250491 
L 116.577184 110.894678 
L 120.74229 85.939098 
L 124.907396 167.761838 
L 129.072501 136.426335 
L 133.237607 100.834891 
L 137.402712 102.383594 
L 141.567818 139.499007 
L 145.732924 139.840503 
L 149.898029 128.600638 
L 154.063135 209.425219 
L 158.22824 175.589131 
L 162.393346 175.26439 
L 166.558452 155.065027 
L 170.723557 143.229139 
L 174.888663 215.783598 
L 179.053768 180.646153 
L 183.218874 204.080159 
L 187.38398 131.388463 
L 191.549085 201.005094 
L 195.714191 121.896773 
L 199.879296 209.61751 
L 204.044402 182.633695 
L 208.209508 217.241342 
L 212.374613 194.935551 
L 216.539719 192.242675 
L 220.704824 137.714926 
L 224.86993 207.205491 
L 229.035036 193.762654 
L 233.200141 201.526914 
L 237.365247 138.185681 
L 241.530352 174.43299 
L 245.695458 168.329137 
L 249.860564 158.413768 
L 254.025669 187.156131 
L 258.190775 99.687527 
L 262.35588 177.152994 
L 266.520986 128.295046 
L 270.686092 182.148578 
L 274.851197 136.854802 
L 279.016303 151.681977 
L 283.181408 152.318693 
L 287.346514 190.610194 
L 291.51162 146.028932 
L 295.676725 168.708933 
L 299.841831 153.379087 
L 304.006936 132.349121 
L 308.172042 191.906764 
L 312.337148 121.156332 
L 316.502253 147.484282 
L 320.667359 129.237353 
L 324.832464 145.56855 
L 328.99757 175.200559 
L 333.162676 168.007588 
L 337.327781 184.121759 
L 341.492887 209.441975 
L 345.657992 258.684505 
L 349.823098 153.722978 
L 353.988204 155.096145 
L 358.153309 200.664395 
L 362.318415 209.978156 
L 366.48352 158.930003 
L 370.648626 136.793364 
L 374.813732 117.253855 
L 378.978837 152.34981 
L 383.143943 178.801433 
L 387.309048 150.050294 
L 391.474154 188.179025 
L 395.63926 213.272641 
L 399.804365 157.441939 
L 403.969471 159.391182 
L 408.134576 190.681206 
L 412.299682 144.019847 
L 416.464788 190.461786 
L 420.629893 148.703457 
L 424.794999 168.986598 
L 428.960104 207.424911 
L 433.12521 157.486621 
L 437.290316 136.601073 
L 441.455421 146.250745 
L 445.620527 181.201484 
L 449.785632 186.479521 
L 453.950738 174.166495 
L 458.115844 146.234787 
L 462.280949 156.584208 
L 466.446055 158.147273 
L 470.61116 210.43774 
L 474.776266 157.797 
L 478.941372 125.68914 
L 483.106477 162.472631 
" clip-path="url(#p99ad746a38)" style="fill: none; stroke: #1f77b4; stroke-width: 2; stroke-linecap: square"/>
   </g>
   <g id="line2d_26">
    <path d="M 70.761023 233.664295 
L 74.926128 230.248532 
L 79.091234 128.263929 
L 83.25634 181.718516 
L 87.421445 184.731346 
L 91.586551 148.259032 
L 95.751656 147.682956 
L 99.916762 104.8762 
L 104.081868 143.402281 
L 108.246973 176.835434 
L 112.412079 143.116636 
L 116.577184 159.054473 
L 120.74229 133.8691 
L 124.907396 142.992963 
L 129.072501 155.433652 
L 133.237607 217.122456 
L 137.402712 137.367845 
L 141.567818 276.147906 
L 145.732924 106.511075 
L 149.898029 171.319626 
L 154.063135 246.349936 
L 158.22824 167.35651 
L 162.393346 107.050448 
L 166.558452 144.859226 
L 170.723557 164.709114 
L 174.888663 155.472749 
L 179.053768 198.67047 
L 183.218874 214.266013 
L 187.38398 221.453399 
L 191.549085 149.802948 
L 195.714191 203.909411 
L 199.879296 193.83606 
L 204.044402 94.384755 
L 208.209508 173.668612 
L 212.374613 199.830601 
L 216.539719 131.261598 
L 220.704824 126.331441 
L 224.86993 216.688404 
L 229.035036 161.06276 
L 233.200141 145.182371 
L 237.365247 191.692929 
L 241.530352 210.010072 
L 245.695458 159.147028 
L 249.860564 247.928959 
L 254.025669 216.049295 
L 258.190775 186.240154 
L 262.35588 179.878584 
L 266.520986 145.740096 
L 270.686092 212.44523 
L 274.851197 186.006373 
L 279.016303 130.481263 
L 283.181408 161.542292 
L 287.346514 179.088673 
L 291.51162 164.441821 
L 295.676725 179.843477 
L 299.841831 171.864584 
L 304.006936 165.972971 
L 308.172042 151.938099 
L 312.337148 160.05742 
L 316.502253 185.337742 
L 320.667359 174.150537 
L 324.832464 192.208366 
L 328.99757 203.374027 
L 333.162676 158.474408 
L 337.327781 164.339691 
L 341.492887 191.613938 
L 345.657992 217.338684 
L 349.823098 177.004587 
L 353.988204 122.141725 
L 358.153309 192.334432 
L 362.318415 190.338911 
L 366.48352 198.357698 
L 370.648626 264.368668 
L 374.813732 144.553635 
L 378.978837 217.172723 
L 383.143943 218.423016 
L 387.309048 206.902293 
L 391.474154 168.463981 
L 395.63926 185.635354 
L 399.804365 242.695603 
L 403.969471 175.118377 
L 408.134576 214.652191 
L 412.299682 193.645364 
L 416.464788 185.772591 
L 420.629893 179.533098 
L 424.794999 219.311864 
L 428.960104 235.848916 
L 433.12521 221.028124 
L 437.290316 286.498125 
L 441.455421 204.136011 
L 445.620527 202.373474 
L 449.785632 244.50362 
L 453.950738 218.029656 
L 458.115844 185.844401 
L 462.280949 180.345349 
L 466.446055 187.851093 
L 470.61116 203.634937 
L 474.776266 226.893407 
L 478.941372 248.825786 
L 483.106477 210.993071 
" clip-path="url(#p99ad746a38)" style="fill: none; stroke: #ff7f0e; stroke-width: 2; stroke-linecap: square"/>
   </g>
   <g id="line2d_27">
    <path d="M 70.761023 235.034271 
L 74.926128 228.789192 
L 79.091234 106.300432 
L 83.25634 113.170258 
L 87.421445 110.195728 
L 91.586551 80.917981 
L 95.751656 115.949307 
L 99.916762 78.629635 
L 104.081868 101.896084 
L 108.246973 66.097987 
L 112.412079 34.898125 
L 116.577184 71.769383 
L 120.74229 59.986953 
L 124.907396 50.37558 
L 129.072501 91.263412 
L 133.237607 69.07172 
L 137.402712 61.90827 
L 141.567818 95.198602 
L 145.732924 76.22719 
L 149.898029 71.189318 
L 154.063135 80.730477 
L 158.22824 47.779248 
L 162.393346 60.837503 
L 166.558452 87.184603 
L 170.723557 95.657388 
L 174.888663 86.309318 
L 179.053768 71.220435 
L 183.218874 69.722797 
L 187.38398 120.73345 
L 191.549085 64.36178 
L 195.714191 69.528112 
L 199.879296 75.254563 
L 204.044402 118.395635 
L 208.209508 39.442104 
L 212.374613 66.030964 
L 216.539719 68.624902 
L 220.704824 61.098413 
L 224.86993 89.857532 
L 229.035036 165.145559 
L 233.200141 59.902377 
L 237.365247 146.49091 
L 241.530352 121.280004 
L 245.695458 186.828997 
L 249.860564 141.340535 
L 254.025669 97.297848 
L 258.190775 60.940431 
L 262.35588 70.518293 
L 266.520986 42.353602 
L 270.686092 56.031019 
L 274.851197 91.280168 
L 279.016303 68.841928 
L 283.181408 72.698924 
L 287.346514 70.709786 
L 291.51162 95.170676 
L 295.676725 82.501791 
L 299.841831 78.08707 
L 304.006936 130.199608 
L 308.172042 104.745346 
L 312.337148 78.256222 
L 316.502253 35.192546 
L 320.667359 74.340182 
L 324.832464 144.107615 
L 328.99757 89.879872 
L 333.162676 134.492252 
L 337.327781 129.692948 
L 341.492887 69.315874 
L 345.657992 139.753533 
L 349.823098 107.304975 
L 353.988204 74.885141 
L 358.153309 36.316772 
L 362.318415 76.974812 
L 366.48352 74.343374 
L 370.648626 100.25323 
L 374.813732 156.628092 
L 378.978837 105.572757 
L 383.143943 107.905785 
L 387.309048 67.917174 
L 391.474154 52.830685 
L 395.63926 92.88233 
L 399.804365 102.799295 
L 403.969471 96.720177 
L 408.134576 68.423834 
L 412.299682 51.619489 
L 416.464788 128.930964 
L 420.629893 67.550145 
L 424.794999 100.069716 
L 428.960104 71.170168 
L 433.12521 108.689313 
L 437.290316 60.18483 
L 441.455421 74.435929 
L 445.620527 82.420406 
L 449.785632 133.736651 
L 453.950738 155.121677 
L 458.115844 118.381273 
L 462.280949 78.022441 
L 466.446055 112.665195 
L 470.61116 119.404167 
L 474.776266 71.14703 
L 478.941372 153.351959 
L 483.106477 123.921018 
" clip-path="url(#p99ad746a38)" style="fill: none; stroke: #2ca02c; stroke-width: 2; stroke-linecap: square"/>
   </g>
   <g id="patch_3">
    <path d="M 50.14375 299.078125 
L 50.14375 22.318125 
" style="fill: none; stroke: #000000; stroke-width: 0.8; stroke-linejoin: miter; stroke-linecap: square"/>
   </g>
   <g id="patch_4">
    <path d="M 503.72375 299.078125 
L 503.72375 22.318125 
" style="fill: none; stroke: #000000; stroke-width: 0.8; stroke-linejoin: miter; stroke-linecap: square"/>
   </g>
   <g id="patch_5">
    <path d="M 50.14375 299.078125 
L 503.72375 299.078125 
" style="fill: none; stroke: #000000; stroke-width: 0.8; stroke-linejoin: miter; stroke-linecap: square"/>
   </g>
   <g id="patch_6">
    <path d="M 50.14375 22.318125 
L 503.72375 22.318125 
" style="fill: none; stroke: #000000; stroke-width: 0.8; stroke-linejoin: miter; stroke-linecap: square"/>
   </g>
   <g id="text_15">
    <!-- Validation Dice -->
    <g transform="translate(232.120312 16.318125) scale(0.12 -0.12)">
     <use xlink:href="#DejaVuSans-56"/>
     <use xlink:href="#DejaVuSans-61" transform="translate(60.658203 0)"/>
     <use xlink:href="#DejaVuSans-6c" transform="translate(121.9375 0)"/>
     <use xlink:href="#DejaVuSans-69" transform="translate(149.720703 0)"/>
     <use xlink:href="#DejaVuSans-64" transform="translate(177.503906 0)"/>
     <use xlink:href="#DejaVuSans-61" transform="translate(240.980469 0)"/>
     <use xlink:href="#DejaVuSans-74" transform="translate(302.259766 0)"/>
     <use xlink:href="#DejaVuSans-69" transform="translate(341.46875 0)"/>
     <use xlink:href="#DejaVuSans-6f" transform="translate(369.251953 0)"/>
     <use xlink:href="#DejaVuSans-6e" transform="translate(430.433594 0)"/>
     <use xlink:href="#DejaVuSans-20" transform="translate(493.8125 0)"/>
     <use xlink:href="#DejaVuSans-44" transform="translate(525.599609 0)"/>
     <use xlink:href="#DejaVuSans-69" transform="translate(602.601562 0)"/>
     <use xlink:href="#DejaVuSans-63" transform="translate(630.384766 0)"/>
     <use xlink:href="#DejaVuSans-65" transform="translate(685.365234 0)"/>
    </g>
   </g>
   <g id="legend_1">
    <g id="line2d_28">
     <path d="M 224.028281 255.142187 
L 234.028281 255.142187 
L 244.028281 255.142187 
" style="fill: none; stroke: #1f77b4; stroke-width: 2; stroke-linecap: square"/>
    </g>
    <g id="text_16">
     <!-- U-Net -->
     <g transform="translate(252.028281 258.642187) scale(0.1 -0.1)">
      <defs>
       <path id="DejaVuSans-55" d="M 556 4666 
L 1191 4666 
L 1191 1831 
Q 1191 1081 1462 751 
Q 1734 422 2344 422 
Q 2950 422 3222 751 
Q 3494 1081 3494 1831 
L 3494 4666 
L 4128 4666 
L 4128 1753 
Q 4128 841 3676 375 
Q 3225 -91 2344 -91 
Q 1459 -91 1007 375 
Q 556 841 556 1753 
L 556 4666 
z
" transform="scale(0.015625)"/>
       <path id="DejaVuSans-2d" d="M 313 2009 
L 1997 2009 
L 1997 1497 
L 313 1497 
L 313 2009 
z
" transform="scale(0.015625)"/>
       <path id="DejaVuSans-4e" d="M 628 4666 
L 1478 4666 
L 3547 763 
L 3547 4666 
L 4159 4666 
L 4159 0 
L 3309 0 
L 1241 3903 
L 1241 0 
L 628 0 
L 628 4666 
z
" transform="scale(0.015625)"/>
      </defs>
      <use xlink:href="#DejaVuSans-55"/>
      <use xlink:href="#DejaVuSans-2d" transform="translate(73.193359 0)"/>
      <use xlink:href="#DejaVuSans-4e" transform="translate(109.277344 0)"/>
      <use xlink:href="#DejaVuSans-65" transform="translate(184.082031 0)"/>
      <use xlink:href="#DejaVuSans-74" transform="translate(245.605469 0)"/>
     </g>
    </g>
    <g id="line2d_29">
     <path d="M 224.028281 269.820312 
L 234.028281 269.820312 
L 244.028281 269.820312 
" style="fill: none; stroke: #ff7f0e; stroke-width: 2; stroke-linecap: square"/>
    </g>
    <g id="text_17">
     <!-- Attention U-Net -->
     <g transform="translate(252.028281 273.320312) scale(0.1 -0.1)">
      <defs>
       <path id="DejaVuSans-41" d="M 2188 4044 
L 1331 1722 
L 3047 1722 
L 2188 4044 
z
M 1831 4666 
L 2547 4666 
L 4325 0 
L 3669 0 
L 3244 1197 
L 1141 1197 
L 716 0 
L 50 0 
L 1831 4666 
z
" transform="scale(0.015625)"/>
      </defs>
      <use xlink:href="#DejaVuSans-41"/>
      <use xlink:href="#DejaVuSans-74" transform="translate(66.658203 0)"/>
      <use xlink:href="#DejaVuSans-74" transform="translate(105.867188 0)"/>
      <use xlink:href="#DejaVuSans-65" transform="translate(145.076172 0)"/>
      <use xlink:href="#DejaVuSans-6e" transform="translate(206.599609 0)"/>
      <use xlink:href="#DejaVuSans-74" transform="translate(269.978516 0)"/>
      <use xlink:href="#DejaVuSans-69" transform="translate(309.1875 0)"/>
      <use xlink:href="#DejaVuSans-6f" transform="translate(336.970703 0)"/>
      <use xlink:href="#DejaVuSans-6e" transform="translate(398.152344 0)"/>
      <use xlink:href="#DejaVuSans-20" transform="translate(461.53125 0)"/>
      <use xlink:href="#DejaVuSans-55" transform="translate(493.318359 0)"/>
      <use xlink:href="#DejaVuSans-2d" transform="translate(566.511719 0)"/>
      <use xlink:href="#DejaVuSans-4e" transform="translate(602.595703 0)"/>
      <use xlink:href="#DejaVuSans-65" transform="translate(677.400391 0)"/>
      <use xlink:href="#DejaVuSans-74" transform="translate(738.923828 0)"/>
     </g>
    </g>
    <g id="line2d_30">
     <path d="M 224.028281 284.498437 
L 234.028281 284.498437 
L 244.028281 284.498437 
" style="fill: none; stroke: #2ca02c; stroke-width: 2; stroke-linecap: square"/>
    </g>
    <g id="text_18">
     <!-- DeepLabV3+ -->
     <g transform="translate(252.028281 287.998437) scale(0.1 -0.1)">
      <defs>
       <path id="DejaVuSans-4c" d="M 628 4666 
L 1259 4666 
L 1259 531 
L 3531 531 
L 3531 0 
L 628 0 
L 628 4666 
z
" transform="scale(0.015625)"/>
       <path id="DejaVuSans-62" d="M 3116 1747 
Q 3116 2381 2855 2742 
Q 2594 3103 2138 3103 
Q 1681 3103 1420 2742 
Q 1159 2381 1159 1747 
Q 1159 1113 1420 752 
Q 1681 391 2138 391 
Q 2594 391 2855 752 
Q 3116 1113 3116 1747 
z
M 1159 2969 
Q 1341 3281 1617 3432 
Q 1894 3584 2278 3584 
Q 2916 3584 3314 3078 
Q 3713 2572 3713 1747 
Q 3713 922 3314 415 
Q 2916 -91 2278 -91 
Q 1894 -91 1617 61 
Q 1341 213 1159 525 
L 1159 0 
L 581 0 
L 581 4863 
L 1159 4863 
L 1159 2969 
z
" transform="scale(0.015625)"/>
       <path id="DejaVuSans-33" d="M 2597 2516 
Q 3050 2419 3304 2112 
Q 3559 1806 3559 1356 
Q 3559 666 3084 287 
Q 2609 -91 1734 -91 
Q 1441 -91 1130 -33 
Q 819 25 488 141 
L 488 750 
Q 750 597 1062 519 
Q 1375 441 1716 441 
Q 2309 441 2620 675 
Q 2931 909 2931 1356 
Q 2931 1769 2642 2001 
Q 2353 2234 1838 2234 
L 1294 2234 
L 1294 2753 
L 1863 2753 
Q 2328 2753 2575 2939 
Q 2822 3125 2822 3475 
Q 2822 3834 2567 4026 
Q 2313 4219 1838 4219 
Q 1578 4219 1281 4162 
Q 984 4106 628 3988 
L 628 4550 
Q 988 4650 1302 4700 
Q 1616 4750 1894 4750 
Q 2613 4750 3031 4423 
Q 3450 4097 3450 3541 
Q 3450 3153 3228 2886 
Q 3006 2619 2597 2516 
z
" transform="scale(0.015625)"/>
       <path id="DejaVuSans-2b" d="M 2944 4013 
L 2944 2272 
L 4684 2272 
L 4684 1741 
L 2944 1741 
L 2944 0 
L 2419 0 
L 2419 1741 
L 678 1741 
L 678 2272 
L 2419 2272 
L 2419 4013 
L 2944 4013 
z
" transform="scale(0.015625)"/>
      </defs>
      <use xlink:href="#DejaVuSans-44"/>
      <use xlink:href="#DejaVuSans-65" transform="translate(77.001953 0)"/>
      <use xlink:href="#DejaVuSans-65" transform="translate(138.525391 0)"/>
      <use xlink:href="#DejaVuSans-70" transform="translate(200.048828 0)"/>
      <use xlink:href="#DejaVuSans-4c" transform="translate(263.525391 0)"/>
      <use xlink:href="#DejaVuSans-61" transform="translate(319.238281 0)"/>
      <use xlink:href="#DejaVuSans-62" transform="translate(380.517578 0)"/>
      <use xlink:href="#DejaVuSans-56" transform="translate(443.994141 0)"/>
      <use xlink:href="#DejaVuSans-33" transform="translate(512.402344 0)"/>
      <use xlink:href="#DejaVuSans-2b" transform="translate(576.025391 0)"/>
     </g>
    </g>
   </g>
  </g>
 </g>
 <defs>
  <clipPath id="p99ad746a38">
   <rect x="50.14375" y="22.318125" width="453.58" height="276.76"/>
  </clipPath>
 </defs>
</svg>
